<svg xmlns="http://www.w3.org/2000/svg" version="1.1" xmlns:xlink="http://www.w3.org/1999/xlink" xmlns:svgjs="http://svgjs.dev/svgjs" viewBox="0 0 18.644152784071615 6.8071825700823565"><g transform="matrix(1,0,0,1,6.7123387787404,2.1318032537911784)"><rect width="18.644152784071615" height="18.644152784071615" x="-6.712338778740399" y="-8.050288360785807" fill="#5cdb95"></rect><g><path d=" M 0.320913 1.065366 L 0.320913 0.7802910000000001 C 0.320913 0.768888 0.3258 0.762372 0.338832 0.752598 L 0.462636 0.669519 C 0.462636 0.669519 0.563634 0.742824 0.563634 0.76563 L 0.563634 1.04256 C 0.563634 1.05885 0.557118 1.065366 0.540828 1.065366 M 0.49847400000000003 0.193851 C 0.518022 0.193851 0.52128 0.19710899999999998 0.52128 0.215028 L 0.52128 0.39096 C 0.52128 0.405621 0.509877 0.42191100000000004 0.493587 0.433314 L 0.320913 0.540828 L 0.320913 0.193851 M 0.627165 1.244556 C 0.710244 1.244556 0.7819200000000001 1.202202 0.7819200000000001 1.119123 L 0.7819200000000001 0.689067 C 0.7819200000000001 0.623907 0.697212 0.576666 0.6532290000000001 0.545715 C 0.685809 0.518022 0.7395660000000001 0.47892599999999996 0.7395660000000001 0.42028199999999993 L 0.7395660000000001 0.1710449999999999 C 0.7395660000000001 0.07167600000000007 0.682551 0.014661000000000035 0.562005 0.014661000000000035 L 0.068418 0.014661000000000035 C 0.045612 0.014661000000000035 0.03258 0.027692999999999968 0.03258 0.042354 C 0.03258 0.07656299999999994 0.102627 0.11403000000000008 0.102627 0.17918999999999996 L 0.102627 1.080027 C 0.102627 1.145187 0.03258 1.182654 0.03258 1.216863 C 0.03258 1.231524 0.045612 1.244556 0.068418 1.244556 M 1.15662258 1.065366 L 1.15662258 0.17918999999999996 C 1.15662258 0.11403000000000008 1.22666958 0.07656299999999994 1.22666958 0.042354 C 1.22666958 0.027692999999999968 1.21363758 0.014661000000000035 1.19083158 0.014661000000000035 L 0.90412758 0.014661000000000035 C 0.88132158 0.014661000000000035 0.8682895800000001 0.027692999999999968 0.8682895800000001 0.042354 C 0.8682895800000001 0.07656299999999994 0.9383365800000001 0.11403000000000008 0.9383365800000001 0.17918999999999996 L 0.9383365800000001 1.080027 C 0.9383365800000001 1.145187 0.8682895800000001 1.182654 0.8682895800000001 1.216863 C 0.8682895800000001 1.231524 0.88132158 1.244556 0.90412758 1.244556 L 1.41889158 1.244556 C 1.4579875800000002 1.244556 1.47427758 1.228266 1.47427758 1.18917 L 1.47427758 0.845451 C 1.47427758 0.8275319999999999 1.45961658 0.8145 1.4465845800000001 0.8145 C 1.4270365800000002 0.8145 1.29997458 0.900837 1.2739105800000001 0.920385 C 1.26087858 0.930159 1.25599158 0.938304 1.25599158 0.962739 L 1.25599158 1.065366 M 1.7316555711328128 1.244556 L 2.0525685711328125 1.244556 C 2.151937571132813 1.244556 2.2138395711328127 1.171251 2.2138395711328127 1.104462 L 2.2138395711328127 0.15475499999999998 C 2.2138395711328127 0.0830789999999999 2.150308571132813 0.014661000000000035 2.0525685711328125 0.014661000000000035 L 1.7316555711328128 0.014661000000000035 C 1.6453185711328127 0.014661000000000035 1.5769005711328128 0.06027300000000002 1.5769005711328128 0.1466099999999999 L 1.5769005711328128 1.112607 C 1.5769005711328128 1.197315 1.6436895711328128 1.244556 1.7316555711328128 1.244556 M 1.7951865711328128 1.053963 L 1.7951865711328128 0.20525400000000005 C 1.7951865711328128 0.19873800000000008 1.8000735711328126 0.193851 1.8065895711328128 0.193851 L 1.9841505711328127 0.193851 C 1.9906665711328126 0.193851 1.9955535711328127 0.19873800000000008 1.9955535711328127 0.20525400000000005 L 1.9955535711328127 1.053963 C 1.9955535711328127 1.05885 1.9906665711328126 1.065366 1.9841505711328127 1.065366 L 1.8065895711328128 1.065366 C 1.8000735711328126 1.065366 1.7951865711328128 1.05885 1.7951865711328128 1.053963 M 2.759600673105469 0.402363 C 2.759600673105469 0.42028199999999993 2.774261673105469 0.433314 2.787293673105469 0.433314 C 2.806841673105469 0.433314 2.933903673105469 0.346977 2.959967673105469 0.32742899999999997 C 2.972999673105469 0.317655 2.977886673105469 0.30950999999999995 2.977886673105469 0.28507499999999997 L 2.977886673105469 0.14498100000000003 C 2.977886673105469 0.07819200000000004 2.912726673105469 0.013031999999999933 2.816615673105469 0.013031999999999933 L 2.5201376731054688 0.013031999999999933 C 2.432171673105469 0.013031999999999933 2.365382673105469 0.055385999999999935 2.365382673105469 0.13683599999999996 L 2.365382673105469 1.120752 C 2.365382673105469 1.202202 2.432171673105469 1.244556 2.5201376731054688 1.244556 L 2.8410506731054688 1.244556 C 2.940419673105469 1.244556 3.002321673105469 1.176138 3.002321673105469 1.114236 L 3.002321673105469 0.578295 C 3.002321673105469 0.557118 2.990918673105469 0.544086 2.971370673105469 0.544086 C 2.940419673105469 0.544086 2.764487673105469 0.620649 2.725391673105469 0.640197 C 2.705843673105469 0.649971 2.694440673105469 0.659745 2.694440673105469 0.682551 L 2.694440673105469 0.8275319999999999 C 2.694440673105469 0.8487089999999999 2.707472673105469 0.861741 2.722133673105469 0.861741 C 2.7449396731054687 0.861741 2.784035673105469 0.842193 2.784035673105469 0.842193 L 2.784035673105469 1.065366 L 2.6048456731054688 1.065366 C 2.5934426731054687 1.065366 2.583668673105469 1.055592 2.583668673105469 1.044189 L 2.583668673105469 0.215028 C 2.583668673105469 0.20362499999999994 2.5934426731054687 0.193851 2.6048456731054688 0.193851 L 2.759600673105469 0.193851 M 3.8234616934570314 0.17918999999999996 C 3.8234616934570314 0.11403000000000008 3.8935086934570315 0.07656299999999994 3.8935086934570315 0.042354 C 3.8935086934570315 0.027692999999999968 3.880476693457031 0.014661000000000035 3.8576706934570315 0.014661000000000035 L 3.570966693457031 0.014661000000000035 C 3.5481606934570316 0.014661000000000035 3.535128693457031 0.027692999999999968 3.535128693457031 0.042354 C 3.535128693457031 0.07656299999999994 3.6051756934570314 0.11403000000000008 3.6051756934570314 0.17918999999999996 L 3.6051756934570314 1.080027 C 3.6051756934570314 1.145187 3.535128693457031 1.182654 3.535128693457031 1.216863 C 3.535128693457031 1.231524 3.5481606934570316 1.244556 3.570966693457031 1.244556 L 3.8576706934570315 1.244556 C 3.880476693457031 1.244556 3.8935086934570315 1.231524 3.8935086934570315 1.216863 C 3.8935086934570315 1.182654 3.8234616934570314 1.145187 3.8234616934570314 1.080027 M 4.284517181660156 1.244556 C 4.310581181660156 1.244556 4.330129181660157 1.228266 4.330129181660157 1.203831 C 4.330129181660157 1.166364 4.260082181660156 1.127268 4.260082181660156 1.093059 L 4.260082181660156 0.557118 L 4.589140181660156 1.198944 C 4.603801181660156 1.228266 4.615204181660157 1.244556 4.659187181660156 1.244556 L 4.7618141816601565 1.244556 C 4.7976521816601565 1.244556 4.820458181660157 1.22175 4.820458181660157 1.187541 L 4.820458181660157 0.17918999999999996 C 4.820458181660157 0.11403000000000008 4.890505181660156 0.07656299999999994 4.890505181660156 0.042354 C 4.890505181660156 0.027692999999999968 4.877473181660156 0.014661000000000035 4.854667181660156 0.014661000000000035 L 4.576108181660156 0.014661000000000035 C 4.553302181660156 0.014661000000000035 4.540270181660157 0.027692999999999968 4.540270181660157 0.042354 C 4.540270181660157 0.07656299999999994 4.6103171816601565 0.11403000000000008 4.6103171816601565 0.17918999999999996 L 4.6103171816601565 0.755856 L 4.282888181660156 0.06515999999999988 C 4.273114181660156 0.042354 4.261711181660156 0.014661000000000035 4.211212181660156 0.014661000000000035 L 4.015732181660156 0.014661000000000035 C 3.9929261816601564 0.014661000000000035 3.979894181660156 0.027692999999999968 3.979894181660156 0.042354 C 3.979894181660156 0.07656299999999994 4.049941181660156 0.11403000000000008 4.049941181660156 0.17918999999999996 L 4.049941181660156 1.080027 C 4.049941181660156 1.145187 3.979894181660156 1.182654 3.979894181660156 1.216863 C 3.979894181660156 1.231524 3.9929261816601564 1.244556 4.015732181660156 1.244556 M 5.1707241708398435 1.244556 L 5.459057170839843 1.244556 C 5.537249170839844 1.244556 5.613812170839844 1.177767 5.613812170839844 1.110978 L 5.613812170839844 0.775404 C 5.613812170839844 0.705357 5.584490170839843 0.672777 5.530733170839843 0.636939 L 5.258690170839843 0.449604 C 5.232626170839843 0.430056 5.227739170839843 0.41702399999999995 5.227739170839843 0.39421799999999996 L 5.227739170839843 0.193851 L 5.379236170839843 0.193851 L 5.379236170839843 0.302994 C 5.379236170839843 0.345348 5.392268170839843 0.360009 5.4069291708398435 0.369783 C 5.434622170839844 0.387702 5.522588170839843 0.449604 5.561684170839843 0.449604 C 5.577974170839844 0.449604 5.597522170839843 0.430056 5.597522170839843 0.40073400000000003 L 5.597522170839843 0.148239 C 5.597522170839843 0.08145000000000002 5.533991170839844 0.014661000000000035 5.436251170839844 0.014661000000000035 L 5.164208170839844 0.014661000000000035 C 5.077871170839844 0.014661000000000035 5.009453170839843 0.05864399999999992 5.009453170839843 0.14009399999999994 L 5.009453170839843 0.46426500000000004 C 5.009453170839843 0.535941 5.050178170839843 0.5701499999999999 5.097419170839844 0.60273 L 5.366204170839843 0.7884359999999999 C 5.387381170839844 0.803097 5.395526170839844 0.817758 5.395526170839844 0.838935 L 5.395526170839844 1.065366 L 5.227739170839843 1.065366 L 5.227739170839843 0.9122399999999999 C 5.227739170839843 0.8698859999999999 5.214707170839843 0.855225 5.200046170839844 0.845451 C 5.173982170839843 0.825903 5.084387170839844 0.76563 5.051807170839844 0.76563 C 5.029001170839844 0.76563 5.009453170839843 0.783549 5.009453170839843 0.812871 L 5.009453170839843 1.110978 C 5.009453170839843 1.177767 5.074613170839844 1.244556 5.1707241708398435 1.244556 M 6.0210764564062496 0.17918999999999996 C 6.0210764564062496 0.11403000000000008 6.091123456406249 0.07656299999999994 6.091123456406249 0.042354 C 6.091123456406249 0.027692999999999968 6.078091456406249 0.014661000000000035 6.055285456406249 0.014661000000000035 L 5.76858145640625 0.014661000000000035 C 5.74577545640625 0.014661000000000035 5.73274345640625 0.027692999999999968 5.73274345640625 0.042354 C 5.73274345640625 0.07656299999999994 5.80279045640625 0.11403000000000008 5.80279045640625 0.17918999999999996 L 5.80279045640625 1.080027 C 5.80279045640625 1.145187 5.73274345640625 1.182654 5.73274345640625 1.216863 C 5.73274345640625 1.231524 5.74577545640625 1.244556 5.76858145640625 1.244556 L 6.055285456406249 1.244556 C 6.078091456406249 1.244556 6.091123456406249 1.231524 6.091123456406249 1.216863 C 6.091123456406249 1.182654 6.0210764564062496 1.145187 6.0210764564062496 1.080027 M 6.604306944609375 0.402363 C 6.604306944609375 0.42028199999999993 6.618967944609375 0.433314 6.631999944609375 0.433314 C 6.651547944609375 0.433314 6.778609944609375 0.346977 6.804673944609375 0.32742899999999997 C 6.817705944609375 0.317655 6.822592944609375 0.30950999999999995 6.822592944609375 0.28507499999999997 L 6.822592944609375 0.14498100000000003 C 6.822592944609375 0.07819200000000004 6.757432944609375 0.013031999999999933 6.661321944609375 0.013031999999999933 L 6.364843944609375 0.013031999999999933 C 6.2768779446093745 0.013031999999999933 6.2100889446093746 0.055385999999999935 6.2100889446093746 0.13683599999999996 L 6.2100889446093746 1.120752 C 6.2100889446093746 1.202202 6.2768779446093745 1.244556 6.364843944609375 1.244556 L 6.685756944609375 1.244556 C 6.785125944609375 1.244556 6.8470279446093745 1.176138 6.8470279446093745 1.114236 L 6.8470279446093745 0.578295 C 6.8470279446093745 0.557118 6.835624944609375 0.544086 6.8160769446093745 0.544086 C 6.785125944609375 0.544086 6.609193944609375 0.620649 6.570097944609375 0.640197 C 6.550549944609375 0.649971 6.539146944609375 0.659745 6.539146944609375 0.682551 L 6.539146944609375 0.8275319999999999 C 6.539146944609375 0.8487089999999999 6.552178944609375 0.861741 6.566839944609375 0.861741 C 6.589645944609375 0.861741 6.6287419446093745 0.842193 6.6287419446093745 0.842193 L 6.6287419446093745 1.065366 L 6.449551944609375 1.065366 C 6.438148944609375 1.065366 6.4283749446093745 1.055592 6.4283749446093745 1.044189 L 6.4283749446093745 0.215028 C 6.4283749446093745 0.20362499999999994 6.438148944609375 0.193851 6.449551944609375 0.193851 L 6.604306944609375 0.193851 M 7.729992046582031 0.17918999999999996 C 7.729992046582031 0.11403000000000008 7.8000390465820315 0.07656299999999994 7.8000390465820315 0.042354 C 7.8000390465820315 0.027692999999999968 7.787007046582032 0.014661000000000035 7.7642010465820315 0.014661000000000035 L 7.477497046582031 0.014661000000000035 C 7.454691046582031 0.014661000000000035 7.441659046582031 0.027692999999999968 7.441659046582031 0.042354 C 7.441659046582031 0.07656299999999994 7.511706046582031 0.11403000000000008 7.511706046582031 0.17918999999999996 L 7.511706046582031 0.628794 L 7.254324046582031 0.74934 L 7.254324046582031 0.17918999999999996 C 7.254324046582031 0.11403000000000008 7.324371046582031 0.07656299999999994 7.324371046582031 0.042354 C 7.324371046582031 0.027692999999999968 7.311339046582031 0.014661000000000035 7.288533046582031 0.014661000000000035 L 7.001829046582031 0.014661000000000035 C 6.979023046582031 0.014661000000000035 6.965991046582031 0.027692999999999968 6.965991046582031 0.042354 C 6.965991046582031 0.07656299999999994 7.036038046582031 0.11403000000000008 7.036038046582031 0.17918999999999996 L 7.036038046582031 1.080027 C 7.036038046582031 1.145187 6.965991046582031 1.182654 6.965991046582031 1.216863 C 6.965991046582031 1.231524 6.979023046582031 1.244556 7.001829046582031 1.244556 L 7.288533046582031 1.244556 C 7.311339046582031 1.244556 7.324371046582031 1.231524 7.324371046582031 1.216863 C 7.324371046582031 1.182654 7.254324046582031 1.145187 7.254324046582031 1.080027 L 7.254324046582031 0.983916 L 7.511706046582031 0.86337 L 7.511706046582031 1.080027 C 7.511706046582031 1.145187 7.441659046582031 1.182654 7.441659046582031 1.216863 C 7.441659046582031 1.231524 7.454691046582031 1.244556 7.477497046582031 1.244556 L 7.7642010465820315 1.244556 C 7.787007046582032 1.244556 7.8000390465820315 1.231524 7.8000390465820315 1.216863 C 7.8000390465820315 1.182654 7.729992046582031 1.145187 7.729992046582031 1.080027 M 8.295258991816405 0.193851 C 8.396256991816406 0.193851 8.396256991816406 0.20362499999999994 8.428836991816405 0.23946299999999998 C 8.456529991816407 0.27204300000000003 8.469561991816406 0.28507499999999997 8.490738991816405 0.28507499999999997 C 8.516802991816405 0.28507499999999997 8.534721991816406 0.26715599999999995 8.534721991816406 0.24109200000000008 L 8.534721991816406 0.042354 C 8.534721991816406 0.016289999999999916 8.516802991816405 0 8.490738991816405 0 C 8.480964991816407 0 8.464674991816405 0.0016289999999998805 8.436981991816406 0.004887000000000086 C 8.404401991816407 0.00977399999999995 8.362047991816405 0.014661000000000035 8.335983991816406 0.014661000000000035 L 8.036247991816406 0.014661000000000035 C 7.920588991816406 0.014661000000000035 7.899411991816406 0 7.873347991816406 0 C 7.847283991816406 0 7.837509991816406 0.011403000000000052 7.837509991816406 0.03746699999999992 L 7.837509991816406 0.25086600000000003 C 7.837509991816406 0.27041399999999993 7.848912991816406 0.28507499999999997 7.866831991816406 0.28507499999999997 C 7.889637991816406 0.28507499999999997 7.904298991816406 0.26878499999999994 7.940136991816406 0.23783399999999988 C 7.975974991816406 0.20688299999999993 7.985748991816406 0.193851 8.076972991816406 0.193851 L 8.076972991816406 1.080027 C 8.076972991816406 1.145187 8.006925991816406 1.182654 8.006925991816406 1.216863 C 8.006925991816406 1.231524 8.019957991816407 1.244556 8.042763991816406 1.244556 L 8.329467991816406 1.244556 C 8.352273991816405 1.244556 8.365305991816406 1.231524 8.365305991816406 1.216863 C 8.365305991816406 1.182654 8.295258991816405 1.145187 8.295258991816405 1.080027 M 8.79864939017578 1.244556 L 9.08698239017578 1.244556 C 9.165174390175782 1.244556 9.24173739017578 1.177767 9.24173739017578 1.110978 L 9.24173739017578 0.775404 C 9.24173739017578 0.705357 9.212415390175781 0.672777 9.15865839017578 0.636939 L 8.88661539017578 0.449604 C 8.86055139017578 0.430056 8.85566439017578 0.41702399999999995 8.85566439017578 0.39421799999999996 L 8.85566439017578 0.193851 L 9.007161390175781 0.193851 L 9.007161390175781 0.302994 C 9.007161390175781 0.345348 9.02019339017578 0.360009 9.03485439017578 0.369783 C 9.06254739017578 0.387702 9.150513390175782 0.449604 9.18960939017578 0.449604 C 9.20589939017578 0.449604 9.22544739017578 0.430056 9.22544739017578 0.40073400000000003 L 9.22544739017578 0.148239 C 9.22544739017578 0.08145000000000002 9.161916390175781 0.014661000000000035 9.064176390175781 0.014661000000000035 L 8.792133390175781 0.014661000000000035 C 8.70579639017578 0.014661000000000035 8.637378390175781 0.05864399999999992 8.637378390175781 0.14009399999999994 L 8.637378390175781 0.46426500000000004 C 8.637378390175781 0.535941 8.678103390175782 0.5701499999999999 8.725344390175781 0.60273 L 8.99412939017578 0.7884359999999999 C 9.01530639017578 0.803097 9.023451390175781 0.817758 9.023451390175781 0.838935 L 9.023451390175781 1.065366 L 8.85566439017578 1.065366 L 8.85566439017578 0.9122399999999999 C 8.85566439017578 0.8698859999999999 8.842632390175782 0.855225 8.827971390175781 0.845451 C 8.801907390175781 0.825903 8.71231239017578 0.76563 8.679732390175781 0.76563 C 8.65692639017578 0.76563 8.637378390175781 0.783549 8.637378390175781 0.812871 L 8.637378390175781 1.110978 C 8.637378390175781 1.177767 8.70253839017578 1.244556 8.79864939017578 1.244556" fill="#05386b" fill-rule="nonzero"></path></g><g><path d=" M 0.047653125000000005 2.5435760624999997 L 0.047653125000000005 2.5318460624999997 L 0.10630312500000001 2.5025210624999996 L 0.10630312500000001 2.1007685625 L 0.047653125000000005 2.0714435625 L 0.047653125000000005 2.0597135625 L 0.26245875 2.0597135625 Q 0.34310250000000003 2.0597135625 0.40028625 2.0883054375 Q 0.45747000000000004 2.1168973124999995 0.48716156250000003 2.1667498124999995 Q 0.516853125 2.2166023124999996 0.516853125 2.2796510624999997 Q 0.516853125 2.3368348125 0.49742531250000005 2.3852210624999994 Q 0.4779975 2.4336073124999995 0.4428075 2.4687973124999996 Q 0.4076175 2.5039873124999996 0.3603309375 2.5237816874999996 Q 0.31304437500000004 2.5435760624999997 0.257326875 2.5435760624999997 L 0.047653125000000005 2.5435760624999997 M 0.24559687500000002 2.1000354375 L 0.17228437500000002 2.1000354375 L 0.17228437500000002 2.5032541874999996 L 0.25659375 2.5032541874999996 Q 0.31524375000000004 2.5032541874999996 0.3581315625 2.4786944999999996 Q 0.401019375 2.4541348124999995 0.42411281250000005 2.4090476249999995 Q 0.44720625 2.3639604375 0.44720625 2.3023779374999997 Q 0.44720625 2.2415285624999997 0.42374625000000005 2.1957082499999996 Q 0.40028625 2.1498879374999995 0.35519906250000005 2.1249616874999995 Q 0.31011187500000004 2.1000354375 0.24559687500000002 2.1000354375 M 0.6701674610595704 2.5435760624999997 L 0.6701674610595704 2.5318460624999997 L 0.7288174610595703 2.5025210624999996 L 0.7288174610595703 2.1007685625 L 0.6701674610595704 2.0714435625 L 0.6701674610595704 2.0597135625 L 0.8534487110595704 2.0597135625 L 0.8534487110595704 2.0714435625 L 0.7947987110595705 2.1007685625 L 0.7947987110595705 2.5025210624999996 L 0.8534487110595704 2.5318460624999997 L 0.8534487110595704 2.5435760624999997 L 0.6701674610595704 2.5435760624999997 M 1.1489821376953127 2.5509073124999997 Q 1.1035283876953126 2.5509073124999997 1.0720040126953125 2.5424763749999997 Q 1.0404796376953125 2.5340454374999997 1.0067558876953127 2.5171835624999996 L 0.9994246376953125 2.3969510624999995 L 1.0111546376953127 2.3969510624999995 L 1.0470777626953125 2.4746623124999996 Q 1.0734702626953125 2.4966560624999996 1.0983965126953126 2.5065532499999996 Q 1.1233227626953126 2.5164504374999996 1.1489821376953127 2.5164504374999996 Q 1.1922365126953125 2.5164504374999996 1.2167962001953125 2.4937235624999996 Q 1.2413558876953126 2.4709966874999996 1.2413558876953126 2.4321410624999995 Q 1.2413558876953126 2.3998835624999995 1.2270599501953126 2.3815554375 Q 1.2127640126953125 2.3632273125 1.1860049501953127 2.348931375 Q 1.1592458876953127 2.3346354375 1.1225896376953126 2.3163073124999998 Q 1.0881327626953126 2.2987123124999997 1.0639396376953125 2.2818504374999997 Q 1.0397465126953125 2.2649885624999997 1.0272833876953125 2.2426282499999997 Q 1.0148202626953127 2.2202679374999996 1.0148202626953127 2.1865441874999996 Q 1.0148202626953127 2.1616179374999995 1.0269168251953125 2.1377913749999995 Q 1.0390133876953125 2.1139648124999995 1.0599074501953125 2.094537 Q 1.0808015126953125 2.0751091875 1.1068274501953126 2.06374575 Q 1.1328533876953126 2.0523823125 1.1607121376953127 2.0523823125 Q 1.1944358876953125 2.0523823125 1.2230277626953125 2.0604466875 Q 1.2516196376953126 2.0685110625 1.2816777626953126 2.0831735625 L 1.2890090126953127 2.2004735624999996 L 1.2772790126953126 2.2004735624999996 L 1.2435552626953126 2.1234954374999995 Q 1.2178958876953125 2.1044341875 1.1988346376953125 2.09600325 Q 1.1797733876953127 2.0875723125 1.1548471376953127 2.0875723125 Q 1.1225896376953126 2.0875723125 1.1016955751953126 2.1095660625 Q 1.0808015126953125 2.1315598124999995 1.0808015126953125 2.1638173124999995 Q 1.0808015126953125 2.2012066874999996 1.1035283876953126 2.2221007499999996 Q 1.1262552626953126 2.2429948124999997 1.1746415126953127 2.2664548124999997 Q 1.2193621376953125 2.2884485624999997 1.2479540126953126 2.3071432499999998 Q 1.2765458876953126 2.3258379375 1.2904752626953127 2.3500310625 Q 1.3044046376953127 2.3742241875 1.3044046376953127 2.4116135624999995 Q 1.3044046376953127 2.4460704374999995 1.2897421376953127 2.4720963749999996 Q 1.2750796376953126 2.4981223124999996 1.2519862001953126 2.5157173124999996 Q 1.2288927626953126 2.5333123124999997 1.2014005751953125 2.5421098124999997 Q 1.1739083876953127 2.5509073124999997 1.1489821376953127 2.5509073124999997 M 1.6886397458496094 2.5509073124999997 Q 1.6138609958496093 2.5509073124999997 1.5596097458496094 2.5201160624999996 Q 1.5053584958496093 2.4893248124999996 1.4760334958496093 2.4361732499999995 Q 1.4467084958496095 2.3830216875 1.4467084958496095 2.3148410624999998 Q 1.4467084958496095 2.2627891874999997 1.4668694333496095 2.2155026249999996 Q 1.4870303708496093 2.1682160624999995 1.5218538083496094 2.1315598124999995 Q 1.5566772458496094 2.0949035625 1.6024975583496095 2.0736429375 Q 1.6483178708496093 2.0523823125 1.6996366208496094 2.0523823125 Q 1.7362928708496095 2.0523823125 1.7619522458496095 2.057147625 Q 1.7876116208496096 2.0619129375 1.8077725583496094 2.06961075 Q 1.8279334958496094 2.0773085625 1.8484609958496094 2.0875723125 L 1.8521266208496094 2.2158691874999996 L 1.8389303708496094 2.2158691874999996 L 1.7942097458496093 2.1264279374999995 Q 1.7663509958496095 2.1066335625 1.7454569333496095 2.0978360625 Q 1.7245628708496095 2.0890385625 1.6981703708496094 2.0890385625 Q 1.6453853708496093 2.0890385625 1.6039638083496095 2.1154310624999995 Q 1.5625422458496094 2.1418235624999995 1.5387156833496094 2.1876438749999996 Q 1.5148891208496094 2.2334641874999996 1.5148891208496094 2.2928473124999997 Q 1.5148891208496094 2.3624941875 1.5379825583496094 2.4119801249999995 Q 1.5610759958496094 2.4614660624999996 1.6002981833496095 2.4874919999999996 Q 1.6395203708496093 2.5135179374999996 1.6871734958496094 2.5135179374999996 Q 1.7274953708496095 2.5135179374999996 1.7549875583496095 2.5021544999999996 Q 1.7824797458496096 2.4907910624999996 1.8037403708496094 2.4768616874999996 L 1.8477278708496094 2.3984173124999995 L 1.8601909958496095 2.3984173124999995 L 1.8521266208496094 2.5149841874999996 Q 1.8308659958496094 2.5259810624999997 1.8085056833496094 2.5340454374999997 Q 1.7861453708496096 2.5421098124999997 1.7575534958496095 2.5465085624999997 Q 1.7289616208496095 2.5509073124999997 1.6886397458496094 2.5509073124999997 M 2.2737564735717775 2.5509073124999997 Q 2.2209714735717774 2.5509073124999997 2.1766174110717773 2.5322126249999997 Q 2.1322633485717777 2.5135179374999996 2.0992727235717776 2.4801607499999996 Q 2.0662820985717776 2.4468035624999995 2.0479539735717776 2.4013498124999995 Q 2.0296258485717775 2.3558960625 2.0296258485717775 2.3016448124999997 Q 2.0296258485717775 2.2473935624999997 2.0479539735717776 2.2019398124999996 Q 2.0662820985717776 2.1564860624999995 2.0992727235717776 2.1231288749999995 Q 2.1322633485717777 2.0897716875 2.1766174110717773 2.071077 Q 2.2209714735717774 2.0523823125 2.2737564735717775 2.0523823125 Q 2.3265414735717775 2.0523823125 2.3712620985717776 2.071077 Q 2.4159827235717772 2.0897716875 2.4489733485717773 2.1231288749999995 Q 2.4819639735717773 2.1564860624999995 2.5002920985717774 2.2019398124999996 Q 2.5186202235717774 2.2473935624999997 2.5186202235717774 2.3016448124999997 Q 2.5186202235717774 2.3558960625 2.5002920985717774 2.4013498124999995 Q 2.4819639735717773 2.4468035624999995 2.4489733485717773 2.4801607499999996 Q 2.4159827235717772 2.5135179374999996 2.3712620985717776 2.5322126249999997 Q 2.3265414735717775 2.5509073124999997 2.2737564735717775 2.5509073124999997 M 2.2891520985717775 2.5142510624999996 Q 2.3360720985717776 2.5142510624999996 2.3716286610717776 2.4907910624999996 Q 2.4071852235717777 2.4673310624999996 2.4273461610717773 2.4248098124999995 Q 2.4475070985717773 2.3822885625 2.4475070985717773 2.3243716875 Q 2.4475070985717773 2.2532585624999997 2.4225808485717772 2.2001069999999996 Q 2.3976545985717777 2.1469554374999995 2.3554999110717776 2.1176304374999995 Q 2.3133452235717775 2.0883054375 2.2612933485717774 2.0883054375 Q 2.2143733485717774 2.0883054375 2.1780836610717773 2.111398875 Q 2.1417939735717773 2.1344923124999995 2.1212664735717777 2.1770135624999996 Q 2.1007389735717776 2.2195348124999996 2.1007389735717776 2.2774516874999997 Q 2.1007389735717776 2.3485648125 2.1260317860717777 2.4020829374999995 Q 2.1513245985717773 2.4556010624999995 2.1938458485717773 2.4849260624999996 Q 2.2363670985717774 2.5142510624999996 2.2891520985717775 2.5142510624999996 M 2.859580194396973 2.5472416874999997 L 2.674832694396973 2.0971029375 L 2.624247069396973 2.0714435625 L 2.624247069396973 2.0597135625 L 2.807528319396973 2.0597135625 L 2.807528319396973 2.0714435625 L 2.7444795693969732 2.0985691875 L 2.7444795693969732 2.1022348125 L 2.881573944396973 2.4380060624999995 L 2.885239569396973 2.4380060624999995 L 3.0216008193969732 2.0993023125 L 3.0216008193969732 2.0963698125 L 2.961484569396973 2.0714435625 L 2.961484569396973 2.0597135625 L 3.115440819396973 2.0597135625 L 3.115440819396973 2.0714435625 L 3.073652694396973 2.0934373125 L 2.885239569396973 2.5472416874999997 L 2.859580194396973 2.5472416874999997 M 3.2394050974731448 2.5435760624999997 L 3.2394050974731448 2.5318460624999997 L 3.298055097473145 2.5025210624999996 L 3.298055097473145 2.1007685625 L 3.2394050974731448 2.0714435625 L 3.2394050974731448 2.0597135625 L 3.597903222473145 2.0597135625 L 3.597903222473145 2.1858110624999996 L 3.586173222473145 2.1858110624999996 L 3.540719472473145 2.1000354375 L 3.3640363474731445 2.1000354375 L 3.3640363474731445 2.2737860624999997 L 3.4886675974731447 2.2737860624999997 L 3.5253238474731448 2.2129366874999996 L 3.5370538474731448 2.2129366874999996 L 3.5370538474731448 2.3734910625 L 3.5253238474731448 2.3734910625 L 3.4886675974731447 2.3141079374999998 L 3.3640363474731445 2.3141079374999998 L 3.3640363474731445 2.5032541874999996 L 3.561246972473145 2.5032541874999996 L 3.606700722473145 2.4101473124999995 L 3.618430722473145 2.4101473124999995 L 3.618430722473145 2.5435760624999997 L 3.2394050974731448 2.5435760624999997 M 3.76804506829834 2.5435760624999997 L 3.76804506829834 2.5318460624999997 L 3.8266950682983403 2.5025210624999996 L 3.8266950682983403 2.1007685625 L 3.76804506829834 2.0714435625 L 3.76804506829834 2.0597135625 L 3.95719131829834 2.0597135625 Q 4.034169443298341 2.0597135625 4.07852350579834 2.0916045 Q 4.12287756829834 2.1234954374999995 4.12287756829834 2.1792129374999996 Q 4.12287756829834 2.2202679374999996 4.09501881829834 2.2528919999999997 Q 4.06716006829834 2.2855160624999997 4.020973193298341 2.3023779374999997 L 4.16026694329834 2.5054535624999996 L 4.20865319329834 2.5318460624999997 L 4.20865319329834 2.5435760624999997 L 4.10308319329834 2.5435760624999997 L 3.96085694329834 2.3214391875 L 3.89267631829834 2.3214391875 L 3.89267631829834 2.5017879374999996 L 3.94766069329834 2.5318460624999997 L 3.94766069329834 2.5435760624999997 L 3.76804506829834 2.5435760624999997 M 3.94032944329834 2.1000354375 L 3.89267631829834 2.1000354375 L 3.89267631829834 2.2811173124999997 L 3.94472819329834 2.2811173124999997 Q 3.99091506829834 2.2811173124999997 4.021339755798341 2.2550913749999997 Q 4.05176444329834 2.2290654374999996 4.05176444329834 2.1887435624999996 Q 4.05176444329834 2.1476885624999995 4.021706318298341 2.1238619999999995 Q 3.99164819329834 2.1000354375 3.94032944329834 2.1000354375 M 4.3472950061645514 2.5472416874999997 Q 4.328966881164551 2.5472416874999997 4.315770631164551 2.5340454374999997 Q 4.302574381164551 2.5208491874999996 4.302574381164551 2.5025210624999996 Q 4.302574381164551 2.4841929374999996 4.315770631164551 2.4709966874999996 Q 4.328966881164551 2.4578004374999995 4.3472950061645514 2.4578004374999995 Q 4.3656231311645515 2.4578004374999995 4.3788193811645515 2.4709966874999996 Q 4.3920156311645515 2.4841929374999996 4.3920156311645515 2.5025210624999996 Q 4.3920156311645515 2.5208491874999996 4.3788193811645515 2.5340454374999997 Q 4.3656231311645515 2.5472416874999997 4.3472950061645514 2.5472416874999997 M 4.771187881164551 2.5435760624999997 L 4.771187881164551 2.5318460624999997 L 4.8298378811645515 2.5025210624999996 L 4.8298378811645515 2.1007685625 L 4.771187881164551 2.0714435625 L 4.771187881164551 2.0597135625 L 4.956668506164552 2.0597135625 Q 5.005054756164551 2.0597135625 5.043543818664551 2.071810125 Q 5.082032881164551 2.0839066875 5.104026631164551 2.10773325 Q 5.126020381164551 2.1315598124999995 5.126020381164551 2.1682160624999995 Q 5.126020381164551 2.2056054374999996 5.101094131164551 2.2367632499999996 Q 5.076167881164551 2.2679210624999997 5.029247881164551 2.2811173124999997 Q 5.094496006164551 2.2899148124999997 5.131152256164551 2.32180575 Q 5.167808506164551 2.3536966875 5.167808506164551 2.4028160624999995 Q 5.167808506164551 2.4431379374999995 5.142515693664551 2.4750288749999996 Q 5.117222881164551 2.5069198124999996 5.073235381164551 2.5252479374999997 Q 5.029247881164551 2.5435760624999997 4.973530381164552 2.5435760624999997 L 4.771187881164551 2.5435760624999997 M 4.939806631164552 2.1000354375 L 4.895819131164552 2.1000354375 L 4.895819131164552 2.2737860624999997 L 4.944205381164552 2.2737860624999997 Q 4.996257256164552 2.2737860624999997 5.025582256164551 2.2514257499999997 Q 5.054907256164551 2.2290654374999996 5.054907256164551 2.1887435624999996 Q 5.054907256164551 2.1000354375 4.939806631164552 2.1000354375 M 4.967665381164552 2.3141079374999998 L 4.895819131164552 2.3141079374999998 L 4.895819131164552 2.5032541874999996 L 4.972797256164552 2.5032541874999996 Q 5.030714131164551 2.5032541874999996 5.063704756164551 2.4768616874999996 Q 5.096695381164551 2.4504691874999995 5.096695381164551 2.4086810624999995 Q 5.096695381164551 2.3588285625 5.063338193664551 2.33646825 Q 5.029981006164551 2.3141079374999998 4.967665381164552 2.3141079374999998 M 5.304257745483399 2.5435760624999997 L 5.304257745483399 2.5318460624999997 L 5.362907745483399 2.5025210624999996 L 5.362907745483399 2.1007685625 L 5.304257745483399 2.0714435625 L 5.304257745483399 2.0597135625 L 5.4948702454833995 2.0597135625 L 5.4948702454833995 2.0714435625 L 5.428888995483399 2.1007685625 L 5.428888995483399 2.5032541874999996 L 5.607038370483399 2.5032541874999996 L 5.656890870483399 2.3808223125 L 5.668620870483399 2.3808223125 L 5.668620870483399 2.5435760624999997 L 5.304257745483399 2.5435760624999997 M 6.066061893859864 2.5509073124999997 Q 6.013276893859865 2.5509073124999997 5.968922831359865 2.5322126249999997 Q 5.9245687688598645 2.5135179374999996 5.8915781438598644 2.4801607499999996 Q 5.858587518859864 2.4468035624999995 5.840259393859864 2.4013498124999995 Q 5.821931268859864 2.3558960625 5.821931268859864 2.3016448124999997 Q 5.821931268859864 2.2473935624999997 5.840259393859864 2.2019398124999996 Q 5.858587518859864 2.1564860624999995 5.8915781438598644 2.1231288749999995 Q 5.9245687688598645 2.0897716875 5.968922831359865 2.071077 Q 6.013276893859865 2.0523823125 6.066061893859864 2.0523823125 Q 6.118846893859864 2.0523823125 6.163567518859864 2.071077 Q 6.208288143859864 2.0897716875 6.241278768859864 2.1231288749999995 Q 6.274269393859864 2.1564860624999995 6.292597518859864 2.2019398124999996 Q 6.310925643859864 2.2473935624999997 6.310925643859864 2.3016448124999997 Q 6.310925643859864 2.3558960625 6.292597518859864 2.4013498124999995 Q 6.274269393859864 2.4468035624999995 6.241278768859864 2.4801607499999996 Q 6.208288143859864 2.5135179374999996 6.163567518859864 2.5322126249999997 Q 6.118846893859864 2.5509073124999997 6.066061893859864 2.5509073124999997 M 6.081457518859864 2.5142510624999996 Q 6.128377518859864 2.5142510624999996 6.163934081359864 2.4907910624999996 Q 6.199490643859864 2.4673310624999996 6.219651581359864 2.4248098124999995 Q 6.239812518859864 2.3822885625 6.239812518859864 2.3243716875 Q 6.239812518859864 2.2532585624999997 6.214886268859864 2.2001069999999996 Q 6.189960018859864 2.1469554374999995 6.147805331359864 2.1176304374999995 Q 6.105650643859864 2.0883054375 6.053598768859864 2.0883054375 Q 6.006678768859865 2.0883054375 5.970389081359865 2.111398875 Q 5.9340993938598645 2.1344923124999995 5.9135718938598645 2.1770135624999996 Q 5.8930443938598644 2.2195348124999996 5.8930443938598644 2.2774516874999997 Q 5.8930443938598644 2.3485648125 5.9183372063598645 2.4020829374999995 Q 5.9436300188598645 2.4556010624999995 5.986151268859865 2.4849260624999996 Q 6.028672518859865 2.5142510624999996 6.081457518859864 2.5142510624999996 M 6.715696127380372 2.5509073124999997 Q 6.645316127380372 2.5509073124999997 6.589965189880372 2.5201160624999996 Q 6.534614252380372 2.4893248124999996 6.503089877380372 2.4361732499999995 Q 6.471565502380372 2.3830216875 6.471565502380372 2.3148410624999998 Q 6.471565502380372 2.2583904374999997 6.491726439880372 2.2107373124999996 Q 6.511887377380372 2.1630841874999995 6.548177064880372 2.1275276249999995 Q 6.584466752380372 2.0919710625 6.631386752380372 2.0721766875 Q 6.678306752380372 2.0523823125 6.732558002380372 2.0523823125 Q 6.770680502380372 2.0523823125 6.797806127380372 2.0567810625 Q 6.824931752380372 2.0611798125 6.846192377380372 2.0692441875 Q 6.867453002380372 2.0773085625 6.888713627380372 2.0875723125 L 6.892379252380372 2.2085379374999996 L 6.880649252380372 2.2085379374999996 L 6.832996127380372 2.1264279374999995 Q 6.802204877380372 2.1051673125 6.780577689880372 2.0971029375 Q 6.7589505023803715 2.0890385625 6.731091752380372 2.0890385625 Q 6.674641127380372 2.0890385625 6.630653627380372 2.1135982499999995 Q 6.586666127380372 2.1381579374999995 6.561739877380372 2.1810457499999996 Q 6.536813627380372 2.2239335624999996 6.536813627380372 2.2781848124999997 Q 6.536813627380372 2.3514973125 6.563572689880372 2.4028160624999995 Q 6.590331752380372 2.4541348124999995 6.635785502380372 2.4812604374999996 Q 6.681239252380372 2.5083860624999996 6.736956752380372 2.5083860624999996 Q 6.7611498773803715 2.5083860624999996 6.783510189880372 2.5054535624999996 Q 6.805870502380372 2.5025210624999996 6.830063627380372 2.4929904374999996 L 6.830063627380372 2.3720248125 L 6.7648155023803715 2.3426998125 L 6.7648155023803715 2.3309698125 L 6.946630502380372 2.3309698125 L 6.946630502380372 2.3426998125 L 6.896044877380372 2.3742241875 L 6.896044877380372 2.4893248124999996 Q 6.862321127380372 2.5171835624999996 6.812835189880372 2.5340454374999997 Q 6.7633492523803715 2.5509073124999997 6.715696127380372 2.5509073124999997 M 7.1255902525634776 2.5472416874999997 Q 7.1072621275634775 2.5472416874999997 7.0940658775634775 2.5340454374999997 Q 7.0808696275634775 2.5208491874999996 7.0808696275634775 2.5025210624999996 Q 7.0808696275634775 2.4841929374999996 7.0940658775634775 2.4709966874999996 Q 7.1072621275634775 2.4578004374999995 7.1255902525634776 2.4578004374999995 Q 7.143918377563478 2.4578004374999995 7.157114627563478 2.4709966874999996 Q 7.170310877563478 2.4841929374999996 7.170310877563478 2.5025210624999996 Q 7.170310877563478 2.5208491874999996 7.157114627563478 2.5340454374999997 Q 7.143918377563478 2.5472416874999997 7.1255902525634776 2.5472416874999997 M 7.5531487525634775 2.5435760624999997 L 7.5531487525634775 2.5318460624999997 L 7.611798752563478 2.5025210624999996 L 7.611798752563478 2.1007685625 L 7.5531487525634775 2.0714435625 L 7.5531487525634775 2.0597135625 L 7.736430002563478 2.0597135625 L 7.736430002563478 2.0714435625 L 7.677780002563478 2.1007685625 L 7.677780002563478 2.5025210624999996 L 7.736430002563478 2.5318460624999997 L 7.736430002563478 2.5435760624999997 L 7.5531487525634775 2.5435760624999997 M 7.88240592919922 2.5435760624999997 L 7.88240592919922 2.5318460624999997 L 7.94105592919922 2.5025210624999996 L 7.94105592919922 2.1022348125 L 7.88313905419922 2.0714435625 L 7.88313905419922 2.0597135625 L 7.99090842919922 2.0597135625 L 8.27096217919922 2.4116135624999995 L 8.27096217919922 2.0993023125 L 8.19764967919922 2.0714435625 L 8.19764967919922 2.0597135625 L 8.38019780419922 2.0597135625 L 8.38019780419922 2.0714435625 L 8.32228092919922 2.1000354375 L 8.32228092919922 2.5472416874999997 L 8.29515530419922 2.5472416874999997 L 7.99237467919922 2.1652835624999995 L 7.99237467919922 2.5032541874999996 L 8.06568717919922 2.5318460624999997 L 8.06568717919922 2.5435760624999997 L 7.88240592919922 2.5435760624999997 M 8.668397475036622 2.5509073124999997 Q 8.622943725036622 2.5509073124999997 8.591419350036622 2.5424763749999997 Q 8.559894975036622 2.5340454374999997 8.526171225036622 2.5171835624999996 L 8.518839975036622 2.3969510624999995 L 8.530569975036622 2.3969510624999995 L 8.566493100036622 2.4746623124999996 Q 8.592885600036622 2.4966560624999996 8.617811850036622 2.5065532499999996 Q 8.642738100036622 2.5164504374999996 8.668397475036622 2.5164504374999996 Q 8.711651850036622 2.5164504374999996 8.736211537536622 2.4937235624999996 Q 8.760771225036622 2.4709966874999996 8.760771225036622 2.4321410624999995 Q 8.760771225036622 2.3998835624999995 8.746475287536622 2.3815554375 Q 8.732179350036622 2.3632273125 8.705420287536622 2.348931375 Q 8.678661225036622 2.3346354375 8.642004975036622 2.3163073124999998 Q 8.607548100036622 2.2987123124999997 8.583354975036622 2.2818504374999997 Q 8.559161850036622 2.2649885624999997 8.546698725036622 2.2426282499999997 Q 8.534235600036622 2.2202679374999996 8.534235600036622 2.1865441874999996 Q 8.534235600036622 2.1616179374999995 8.546332162536622 2.1377913749999995 Q 8.558428725036622 2.1139648124999995 8.579322787536622 2.094537 Q 8.600216850036622 2.0751091875 8.626242787536622 2.06374575 Q 8.652268725036622 2.0523823125 8.680127475036622 2.0523823125 Q 8.713851225036622 2.0523823125 8.742443100036622 2.0604466875 Q 8.771034975036622 2.0685110625 8.801093100036622 2.0831735625 L 8.808424350036622 2.2004735624999996 L 8.796694350036622 2.2004735624999996 L 8.762970600036622 2.1234954374999995 Q 8.737311225036622 2.1044341875 8.718249975036622 2.09600325 Q 8.699188725036622 2.0875723125 8.674262475036622 2.0875723125 Q 8.642004975036622 2.0875723125 8.621110912536622 2.1095660625 Q 8.600216850036622 2.1315598124999995 8.600216850036622 2.1638173124999995 Q 8.600216850036622 2.2012066874999996 8.622943725036622 2.2221007499999996 Q 8.645670600036622 2.2429948124999997 8.694056850036622 2.2664548124999997 Q 8.738777475036622 2.2884485624999997 8.767369350036622 2.3071432499999998 Q 8.795961225036622 2.3258379375 8.809890600036622 2.3500310625 Q 8.823819975036622 2.3742241875 8.823819975036622 2.4116135624999995 Q 8.823819975036622 2.4460704374999995 8.809157475036622 2.4720963749999996 Q 8.794494975036622 2.4981223124999996 8.771401537536622 2.5157173124999996 Q 8.748308100036622 2.5333123124999997 8.720815912536622 2.5421098124999997 Q 8.693323725036622 2.5509073124999997 8.668397475036622 2.5509073124999997 M 8.962458208190919 2.5435760624999997 L 8.962458208190919 2.5318460624999997 L 9.021108208190919 2.5025210624999996 L 9.021108208190919 2.1007685625 L 8.962458208190919 2.0714435625 L 8.962458208190919 2.0597135625 L 9.153070708190919 2.0597135625 Q 9.239579458190919 2.0597135625 9.291997895690919 2.0912379375 Q 9.34441633319092 2.1227623124999995 9.34441633319092 2.1909429374999996 Q 9.34441633319092 2.2312648124999996 9.316924145690919 2.2624226249999997 Q 9.289431958190919 2.2935804374999997 9.242145395690919 2.3119085624999998 Q 9.194858833190919 2.3302366875 9.135475708190919 2.3302366875 L 9.087089458190919 2.3302366875 L 9.087089458190919 2.5025210624999996 L 9.153070708190919 2.5318460624999997 L 9.153070708190919 2.5435760624999997 L 8.962458208190919 2.5435760624999997 M 9.087089458190919 2.1000354375 L 9.087089458190919 2.2899148124999997 L 9.149405083190919 2.2899148124999997 Q 9.207321958190919 2.2899148124999997 9.240312583190919 2.2638888749999997 Q 9.273303208190919 2.2378629374999996 9.273303208190919 2.1968079374999996 Q 9.273303208190919 2.1454891874999995 9.239946020690919 2.1227623124999995 Q 9.206588833190919 2.1000354375 9.144273208190919 2.1000354375 L 9.087089458190919 2.1000354375 M 9.48451687866211 2.5435760624999997 L 9.48451687866211 2.5318460624999997 L 9.54316687866211 2.5025210624999996 L 9.54316687866211 2.1007685625 L 9.48451687866211 2.0714435625 L 9.48451687866211 2.0597135625 L 9.66779812866211 2.0597135625 L 9.66779812866211 2.0714435625 L 9.60914812866211 2.1007685625 L 9.60914812866211 2.5025210624999996 L 9.66779812866211 2.5318460624999997 L 9.66779812866211 2.5435760624999997 L 9.48451687866211 2.5435760624999997 M 9.817439680297852 2.5435760624999997 L 9.817439680297852 2.5318460624999997 L 9.876089680297852 2.5025210624999996 L 9.876089680297852 2.1007685625 L 9.817439680297852 2.0714435625 L 9.817439680297852 2.0597135625 L 10.006585930297852 2.0597135625 Q 10.083564055297852 2.0597135625 10.127918117797853 2.0916045 Q 10.172272180297853 2.1234954374999995 10.172272180297853 2.1792129374999996 Q 10.172272180297853 2.2202679374999996 10.144413430297853 2.2528919999999997 Q 10.116554680297853 2.2855160624999997 10.070367805297852 2.3023779374999997 L 10.209661555297853 2.5054535624999996 L 10.258047805297853 2.5318460624999997 L 10.258047805297853 2.5435760624999997 L 10.152477805297853 2.5435760624999997 L 10.010251555297852 2.3214391875 L 9.942070930297852 2.3214391875 L 9.942070930297852 2.5017879374999996 L 9.997055305297852 2.5318460624999997 L 9.997055305297852 2.5435760624999997 L 9.817439680297852 2.5435760624999997 M 9.989724055297852 2.1000354375 L 9.942070930297852 2.1000354375 L 9.942070930297852 2.2811173124999997 L 9.994122805297852 2.2811173124999997 Q 10.040309680297852 2.2811173124999997 10.070734367797852 2.2550913749999997 Q 10.101159055297853 2.2290654374999996 10.101159055297853 2.1887435624999996 Q 10.101159055297853 2.1476885624999995 10.071100930297852 2.1238619999999995 Q 10.041042805297852 2.1000354375 9.989724055297852 2.1000354375 M 10.352702118164062 2.5435760624999997 L 10.352702118164062 2.5318460624999997 L 10.411352118164062 2.5025210624999996 L 10.411352118164062 2.1007685625 L 10.352702118164062 2.0714435625 L 10.352702118164062 2.0597135625 L 10.711200243164063 2.0597135625 L 10.711200243164063 2.1858110624999996 L 10.699470243164063 2.1858110624999996 L 10.654016493164063 2.1000354375 L 10.477333368164063 2.1000354375 L 10.477333368164063 2.2737860624999997 L 10.601964618164063 2.2737860624999997 L 10.638620868164063 2.2129366874999996 L 10.650350868164063 2.2129366874999996 L 10.650350868164063 2.3734910625 L 10.638620868164063 2.3734910625 L 10.601964618164063 2.3141079374999998 L 10.477333368164063 2.3141079374999998 L 10.477333368164063 2.5032541874999996 L 10.674543993164063 2.5032541874999996 L 10.719997743164063 2.4101473124999995 L 10.731727743164063 2.4101473124999995 L 10.731727743164063 2.5435760624999997 L 10.352702118164062 2.5435760624999997 M 10.925329588989257 2.5472416874999997 Q 10.907001463989257 2.5472416874999997 10.893805213989257 2.5340454374999997 Q 10.880608963989257 2.5208491874999996 10.880608963989257 2.5025210624999996 Q 10.880608963989257 2.4841929374999996 10.893805213989257 2.4709966874999996 Q 10.907001463989257 2.4578004374999995 10.925329588989257 2.4578004374999995 Q 10.943657713989257 2.4578004374999995 10.956853963989257 2.4709966874999996 Q 10.970050213989257 2.4841929374999996 10.970050213989257 2.5025210624999996 Q 10.970050213989257 2.5208491874999996 10.956853963989257 2.5340454374999997 Q 10.943657713989257 2.5472416874999997 10.925329588989257 2.5472416874999997" fill="#05386b" fill-rule="nonzero"></path></g><g clip-path="url(#SvgjsClipPath1004)"><g clip-path="url(#SvgjsClipPath1002d61d32ab-8810-4bec-85c0-e28f4f5a33ae)"><path d=" M -1.8657005897811643 -0.17125887266805684 L -5.588345388499375 -0.17125887266805684 L -5.588345388499375 3.551385926050154 L -1.8657005897811643 3.551385926050154 Z M -5.797494987398442 -0.3804084715671229 L -5.797494987398442 3.7605355249492205 L -1.6565509908820983 3.7605355249492205 L -1.6565509908820983 -0.3804084715671229 Z" fill="#05386b" transform="matrix(1,0,0,1,0,0)" fill-rule="evenodd"></path></g><g clip-path="url(#SvgjsClipPath1002d61d32ab-8810-4bec-85c0-e28f4f5a33ae)"><path d=" M -1.3637794761947388 -0.6731799862544826 L -5.253715511203703 -0.6731799862544826 L -5.253715511203703 3.216756048754482 L -1.3637794761947388 3.216756048754482 Z M -5.37919578960031 -0.798660264651089 L -5.37919578960031 3.3422363271510886 L -1.2382991977981321 3.3422363271510886 L -1.2382991977981321 -0.798660264651089 Z" fill="#05386b" transform="matrix(1,0,0,1,0,0)" fill-rule="evenodd"></path></g><g clip-path="url(#SvgjsClipPath1002d61d32ab-8810-4bec-85c0-e28f4f5a33ae)"><path d=" M -0.90366932050246 -1.1332901419467614 L -4.877274676013884 -1.1332901419467614 L -4.877274676013884 2.8403152135646628 L -0.9036693205024608 2.8403152135646628 Z M -4.9609439965163435 -1.2169594624492208 L -4.9609439965163435 2.9239845340671224 L -0.8200000000000003 2.9239845340671224 L -0.8200000000000003 -1.2169594624492208 Z" fill="#05386b" transform="matrix(1,0,0,1,0,0)" fill-rule="evenodd"></path></g><g clip-path="url(#SvgjsClipPath1002d61d32ab-8810-4bec-85c0-e28f4f5a33ae)"><path d=" M -4.542644798718212 1.6273233874927455 L -3.7060938078361136 1.6273233874927455 L -3.7060938078361136 2.4638743783748436 L -4.542644798718212 2.4638743783748436 Z" fill="#05386b" transform="matrix(1,0,0,1,0,0)" fill-rule="nonzero"></path></g></g></g><defs><clipPath id="SvgjsClipPath1004"><path d=" M -5.797494987398442 -1.2169594624492208 h 4.977494987398441 v 4.977494987398441 h -4.977494987398441 Z"></path></clipPath><clipPath id="SvgjsClipPath1002d61d32ab-8810-4bec-85c0-e28f4f5a33ae"><path d=" M -5.797494987398442 -1.2169594624492208 L -0.8200000000000003 -1.2169594624492208 L -0.8200000000000003 3.7605355249492205 L -5.797494987398442 3.7605355249492205 Z"></path></clipPath></defs></svg>