<svg xmlns="http://www.w3.org/2000/svg" version="1.1" xmlns:xlink="http://www.w3.org/1999/xlink" xmlns:svgjs="http://svgjs.dev/svgjs" viewBox="0 0 8.949504324505856 9.390198074505857"><g transform="matrix(1,0,0,1,4.0051455887666005,8.435614835762633)"><rect width="9.390198074505857" height="9.390198074505857" x="-4.225492463766601" y="-8.435614835762633" fill="#5cdb95"></rect><g><path d=" M 0.07066306079101563 0.09810000000000002 L 0.07066306079101563 0.07185000000000002 C 0.07066306079101563 0.07080000000000002 0.07111306079101562 0.07020000000000001 0.07231306079101563 0.06930000000000001 L 0.08371306079101562 0.06165000000000002 C 0.08371306079101562 0.06165000000000002 0.09301306079101562 0.06840000000000002 0.09301306079101562 0.07050000000000001 L 0.09301306079101562 0.09600000000000002 C 0.09301306079101562 0.09750000000000002 0.09241306079101563 0.09810000000000002 0.09091306079101563 0.09810000000000002 M 0.08701306079101562 0.01785000000000002 C 0.08881306079101563 0.01785000000000002 0.08911306079101562 0.018150000000000013 0.08911306079101562 0.019800000000000012 L 0.08911306079101562 0.03600000000000002 C 0.08911306079101562 0.03735000000000001 0.08806306079101563 0.03885000000000001 0.08656306079101563 0.03990000000000002 L 0.07066306079101563 0.04980000000000001 L 0.07066306079101563 0.01785000000000002 M 0.09886306079101562 0.11460000000000002 C 0.10651306079101562 0.11460000000000002 0.11311306079101563 0.11070000000000002 0.11311306079101563 0.10305000000000002 L 0.11311306079101563 0.06345 C 0.11311306079101563 0.057450000000000015 0.10531306079101563 0.053100000000000015 0.10126306079101563 0.05025000000000002 C 0.10426306079101563 0.04770000000000002 0.10921306079101563 0.044100000000000014 0.10921306079101563 0.03870000000000001 L 0.10921306079101563 0.015750000000000014 C 0.10921306079101563 0.006600000000000009 0.10396306079101562 0.001350000000000004 0.09286306079101563 0.001350000000000004 L 0.04741306079101562 0.001350000000000004 C 0.04531306079101562 0.001350000000000004 0.044113060791015624 0.0025500000000000106 0.044113060791015624 0.0039000000000000146 C 0.044113060791015624 0.007050000000000015 0.05056306079101562 0.01050000000000001 0.05056306079101562 0.016500000000000015 L 0.05056306079101562 0.09945000000000002 C 0.05056306079101562 0.10545000000000002 0.044113060791015624 0.10890000000000002 0.044113060791015624 0.11205000000000002 C 0.044113060791015624 0.11340000000000001 0.04531306079101562 0.11460000000000002 0.04741306079101562 0.11460000000000002 M 0.14761606079101564 0.09810000000000002 L 0.14761606079101564 0.016500000000000015 C 0.14761606079101564 0.01050000000000001 0.15406606079101565 0.007050000000000015 0.15406606079101565 0.0039000000000000146 C 0.15406606079101565 0.0025500000000000106 0.15286606079101564 0.001350000000000004 0.15076606079101565 0.001350000000000004 L 0.12436606079101564 0.001350000000000004 C 0.12226606079101564 0.001350000000000004 0.12106606079101564 0.0025500000000000106 0.12106606079101564 0.0039000000000000146 C 0.12106606079101564 0.007050000000000015 0.12751606079101563 0.01050000000000001 0.12751606079101563 0.016500000000000015 L 0.12751606079101563 0.09945000000000002 C 0.12751606079101563 0.10545000000000002 0.12106606079101564 0.10890000000000002 0.12106606079101564 0.11205000000000002 C 0.12106606079101564 0.11340000000000001 0.12226606079101564 0.11460000000000002 0.12436606079101564 0.11460000000000002 L 0.17176606079101564 0.11460000000000002 C 0.17536606079101563 0.11460000000000002 0.17686606079101563 0.11310000000000002 0.17686606079101563 0.10950000000000001 L 0.17686606079101563 0.07785000000000002 C 0.17686606079101563 0.07620000000000002 0.17551606079101564 0.07500000000000001 0.17431606079101564 0.07500000000000001 C 0.17251606079101564 0.07500000000000001 0.16081606079101565 0.08295000000000002 0.15841606079101564 0.08475000000000002 C 0.15721606079101563 0.08565000000000002 0.15676606079101565 0.08640000000000002 0.15676606079101565 0.08865000000000002 L 0.15676606079101565 0.09810000000000002 M 0.20056569165039065 0.11460000000000002 L 0.23011569165039067 0.11460000000000002 C 0.23926569165039066 0.11460000000000002 0.24496569165039067 0.10785000000000002 0.24496569165039067 0.10170000000000001 L 0.24496569165039067 0.014250000000000013 C 0.24496569165039067 0.007650000000000018 0.23911569165039065 0.001350000000000004 0.23011569165039067 0.001350000000000004 L 0.20056569165039065 0.001350000000000004 C 0.19261569165039066 0.001350000000000004 0.18631569165039066 0.005550000000000013 0.18631569165039066 0.013500000000000012 L 0.18631569165039066 0.10245000000000001 C 0.18631569165039066 0.11025000000000001 0.19246569165039065 0.11460000000000002 0.20056569165039065 0.11460000000000002 M 0.20641569165039067 0.09705000000000003 L 0.20641569165039067 0.018900000000000014 C 0.20641569165039067 0.01830000000000001 0.20686569165039065 0.01785000000000002 0.20746569165039067 0.01785000000000002 L 0.22381569165039067 0.01785000000000002 C 0.22441569165039066 0.01785000000000002 0.22486569165039066 0.01830000000000001 0.22486569165039066 0.018900000000000014 L 0.22486569165039066 0.09705000000000003 C 0.22486569165039066 0.09750000000000002 0.22441569165039066 0.09810000000000002 0.22381569165039067 0.09810000000000002 L 0.20746569165039067 0.09810000000000002 C 0.20686569165039065 0.09810000000000002 0.20641569165039067 0.09750000000000002 0.20641569165039067 0.09705000000000003 M 0.2952199367675782 0.037050000000000013 C 0.2952199367675782 0.03870000000000001 0.2965699367675782 0.03990000000000002 0.2977699367675782 0.03990000000000002 C 0.2995699367675782 0.03990000000000002 0.3112699367675782 0.03195000000000002 0.3136699367675782 0.03015000000000001 C 0.3148699367675782 0.029250000000000012 0.3153199367675782 0.02850000000000001 0.3153199367675782 0.02625000000000001 L 0.3153199367675782 0.013350000000000015 C 0.3153199367675782 0.007200000000000012 0.3093199367675782 0.0012000000000000066 0.30046993676757816 0.0012000000000000066 L 0.27316993676757817 0.0012000000000000066 C 0.2650699367675782 0.0012000000000000066 0.2589199367675782 0.005100000000000007 0.2589199367675782 0.012600000000000014 L 0.2589199367675782 0.10320000000000001 C 0.2589199367675782 0.11070000000000002 0.2650699367675782 0.11460000000000002 0.27316993676757817 0.11460000000000002 L 0.3027199367675782 0.11460000000000002 C 0.3118699367675782 0.11460000000000002 0.31756993676757816 0.10830000000000002 0.31756993676757816 0.10260000000000002 L 0.31756993676757816 0.05325000000000001 C 0.31756993676757816 0.05130000000000001 0.31651993676757817 0.05010000000000002 0.3147199367675782 0.05010000000000002 C 0.3118699367675782 0.05010000000000002 0.2956699367675782 0.05715000000000001 0.2920699367675782 0.058950000000000016 C 0.2902699367675782 0.059850000000000014 0.2892199367675782 0.06075000000000002 0.2892199367675782 0.06285000000000002 L 0.2892199367675782 0.07620000000000002 C 0.2892199367675782 0.07815000000000003 0.29041993676757816 0.07935000000000002 0.2917699367675782 0.07935000000000002 C 0.29386993676757817 0.07935000000000002 0.29746993676757816 0.07755000000000001 0.29746993676757816 0.07755000000000001 L 0.29746993676757816 0.09810000000000002 L 0.2809699367675782 0.09810000000000002 C 0.2799199367675782 0.09810000000000002 0.2790199367675782 0.09720000000000002 0.2790199367675782 0.09615000000000001 L 0.2790199367675782 0.019800000000000012 C 0.2790199367675782 0.018750000000000017 0.2799199367675782 0.01785000000000002 0.2809699367675782 0.01785000000000002 L 0.2952199367675782 0.01785000000000002 M 0.3931813566894532 0.016500000000000015 C 0.3931813566894532 0.01050000000000001 0.39963135668945315 0.007050000000000015 0.39963135668945315 0.0039000000000000146 C 0.39963135668945315 0.0025500000000000106 0.3984313566894532 0.001350000000000004 0.3963313566894532 0.001350000000000004 L 0.3699313566894532 0.001350000000000004 C 0.36783135668945316 0.001350000000000004 0.3666313566894532 0.0025500000000000106 0.3666313566894532 0.0039000000000000146 C 0.3666313566894532 0.007050000000000015 0.3730813566894532 0.01050000000000001 0.3730813566894532 0.016500000000000015 L 0.3730813566894532 0.09945000000000002 C 0.3730813566894532 0.10545000000000002 0.3666313566894532 0.10890000000000002 0.3666313566894532 0.11205000000000002 C 0.3666313566894532 0.11340000000000001 0.36783135668945316 0.11460000000000002 0.3699313566894532 0.11460000000000002 L 0.3963313566894532 0.11460000000000002 C 0.3984313566894532 0.11460000000000002 0.39963135668945315 0.11340000000000001 0.39963135668945315 0.11205000000000002 C 0.39963135668945315 0.10890000000000002 0.3931813566894532 0.10545000000000002 0.3931813566894532 0.09945000000000002 M 0.4356358215332032 0.11460000000000002 C 0.43803582153320314 0.11460000000000002 0.43983582153320316 0.11310000000000002 0.43983582153320316 0.11085000000000002 C 0.43983582153320316 0.10740000000000002 0.43338582153320315 0.10380000000000002 0.43338582153320315 0.10065000000000002 L 0.43338582153320315 0.05130000000000001 L 0.46368582153320315 0.11040000000000003 C 0.46503582153320316 0.11310000000000002 0.46608582153320316 0.11460000000000002 0.47013582153320316 0.11460000000000002 L 0.47958582153320317 0.11460000000000002 C 0.48288582153320314 0.11460000000000002 0.4849858215332032 0.11250000000000002 0.4849858215332032 0.10935000000000002 L 0.4849858215332032 0.016500000000000015 C 0.4849858215332032 0.01050000000000001 0.4914358215332032 0.007050000000000015 0.4914358215332032 0.0039000000000000146 C 0.4914358215332032 0.0025500000000000106 0.49023582153320316 0.001350000000000004 0.4881358215332032 0.001350000000000004 L 0.46248582153320317 0.001350000000000004 C 0.4603858215332032 0.001350000000000004 0.45918582153320314 0.0025500000000000106 0.45918582153320314 0.0039000000000000146 C 0.45918582153320314 0.007050000000000015 0.46563582153320315 0.01050000000000001 0.46563582153320315 0.016500000000000015 L 0.46563582153320315 0.06960000000000002 L 0.43548582153320314 0.006000000000000005 C 0.4345858215332032 0.0039000000000000146 0.43353582153320314 0.001350000000000004 0.42888582153320315 0.001350000000000004 L 0.4108858215332032 0.001350000000000004 C 0.40878582153320314 0.001350000000000004 0.40758582153320316 0.0025500000000000106 0.40758582153320316 0.0039000000000000146 C 0.40758582153320316 0.007050000000000015 0.4140358215332032 0.01050000000000001 0.4140358215332032 0.016500000000000015 L 0.4140358215332032 0.09945000000000002 C 0.4140358215332032 0.10545000000000002 0.40758582153320316 0.10890000000000002 0.40758582153320316 0.11205000000000002 C 0.40758582153320316 0.11340000000000001 0.40878582153320314 0.11460000000000002 0.4108858215332032 0.11460000000000002 M 0.5172386750488281 0.11460000000000002 L 0.5437886750488282 0.11460000000000002 C 0.5509886750488282 0.11460000000000002 0.5580386750488282 0.10845000000000002 0.5580386750488282 0.10230000000000002 L 0.5580386750488282 0.07140000000000002 C 0.5580386750488282 0.06495000000000001 0.5553386750488282 0.06195000000000002 0.5503886750488282 0.058650000000000015 L 0.5253386750488281 0.04140000000000002 C 0.5229386750488282 0.03960000000000001 0.5224886750488281 0.03840000000000002 0.5224886750488281 0.03630000000000001 L 0.5224886750488281 0.01785000000000002 L 0.5364386750488281 0.01785000000000002 L 0.5364386750488281 0.027900000000000008 C 0.5364386750488281 0.03180000000000001 0.5376386750488281 0.03315000000000001 0.5389886750488282 0.03405000000000001 C 0.5415386750488281 0.03570000000000001 0.5496386750488281 0.04140000000000002 0.5532386750488282 0.04140000000000002 C 0.5547386750488281 0.04140000000000002 0.5565386750488281 0.03960000000000001 0.5565386750488281 0.036900000000000016 L 0.5565386750488281 0.01365000000000001 C 0.5565386750488281 0.007500000000000007 0.5506886750488281 0.001350000000000004 0.5416886750488281 0.001350000000000004 L 0.5166386750488282 0.001350000000000004 C 0.5086886750488282 0.001350000000000004 0.5023886750488281 0.005400000000000016 0.5023886750488281 0.012900000000000009 L 0.5023886750488281 0.04275000000000001 C 0.5023886750488281 0.04935000000000002 0.5061386750488281 0.05250000000000002 0.5104886750488282 0.055500000000000015 L 0.5352386750488282 0.07260000000000003 C 0.5371886750488282 0.07395000000000002 0.5379386750488282 0.07530000000000002 0.5379386750488282 0.07725000000000001 L 0.5379386750488282 0.09810000000000002 L 0.5224886750488281 0.09810000000000002 L 0.5224886750488281 0.08400000000000002 C 0.5224886750488281 0.08010000000000002 0.5212886750488281 0.07875000000000001 0.5199386750488282 0.07785000000000002 C 0.5175386750488282 0.07605000000000002 0.5092886750488281 0.07050000000000001 0.5062886750488281 0.07050000000000001 C 0.5041886750488281 0.07050000000000001 0.5023886750488281 0.07215000000000002 0.5023886750488281 0.07485000000000003 L 0.5023886750488281 0.10230000000000002 C 0.5023886750488281 0.10845000000000002 0.5083886750488281 0.11460000000000002 0.5172386750488281 0.11460000000000002 M 0.5955399904785157 0.016500000000000015 C 0.5955399904785157 0.01050000000000001 0.6019899904785158 0.007050000000000015 0.6019899904785158 0.0039000000000000146 C 0.6019899904785158 0.0025500000000000106 0.6007899904785158 0.001350000000000004 0.5986899904785157 0.001350000000000004 L 0.5722899904785157 0.001350000000000004 C 0.5701899904785157 0.001350000000000004 0.5689899904785157 0.0025500000000000106 0.5689899904785157 0.0039000000000000146 C 0.5689899904785157 0.007050000000000015 0.5754399904785157 0.01050000000000001 0.5754399904785157 0.016500000000000015 L 0.5754399904785157 0.09945000000000002 C 0.5754399904785157 0.10545000000000002 0.5689899904785157 0.10890000000000002 0.5689899904785157 0.11205000000000002 C 0.5689899904785157 0.11340000000000001 0.5701899904785157 0.11460000000000002 0.5722899904785157 0.11460000000000002 L 0.5986899904785157 0.11460000000000002 C 0.6007899904785158 0.11460000000000002 0.6019899904785158 0.11340000000000001 0.6019899904785158 0.11205000000000002 C 0.6019899904785158 0.10890000000000002 0.5955399904785157 0.10545000000000002 0.5955399904785157 0.09945000000000002 M 0.6492444553222657 0.037050000000000013 C 0.6492444553222657 0.03870000000000001 0.6505944553222657 0.03990000000000002 0.6517944553222657 0.03990000000000002 C 0.6535944553222657 0.03990000000000002 0.6652944553222657 0.03195000000000002 0.6676944553222657 0.03015000000000001 C 0.6688944553222658 0.029250000000000012 0.6693444553222657 0.02850000000000001 0.6693444553222657 0.02625000000000001 L 0.6693444553222657 0.013350000000000015 C 0.6693444553222657 0.007200000000000012 0.6633444553222657 0.0012000000000000066 0.6544944553222657 0.0012000000000000066 L 0.6271944553222657 0.0012000000000000066 C 0.6190944553222657 0.0012000000000000066 0.6129444553222657 0.005100000000000007 0.6129444553222657 0.012600000000000014 L 0.6129444553222657 0.10320000000000001 C 0.6129444553222657 0.11070000000000002 0.6190944553222657 0.11460000000000002 0.6271944553222657 0.11460000000000002 L 0.6567444553222657 0.11460000000000002 C 0.6658944553222657 0.11460000000000002 0.6715944553222657 0.10830000000000002 0.6715944553222657 0.10260000000000002 L 0.6715944553222657 0.05325000000000001 C 0.6715944553222657 0.05130000000000001 0.6705444553222657 0.05010000000000002 0.6687444553222657 0.05010000000000002 C 0.6658944553222657 0.05010000000000002 0.6496944553222657 0.05715000000000001 0.6460944553222657 0.058950000000000016 C 0.6442944553222657 0.059850000000000014 0.6432444553222657 0.06075000000000002 0.6432444553222657 0.06285000000000002 L 0.6432444553222657 0.07620000000000002 C 0.6432444553222657 0.07815000000000003 0.6444444553222657 0.07935000000000002 0.6457944553222658 0.07935000000000002 C 0.6478944553222657 0.07935000000000002 0.6514944553222657 0.07755000000000001 0.6514944553222657 0.07755000000000001 L 0.6514944553222657 0.09810000000000002 L 0.6349944553222657 0.09810000000000002 C 0.6339444553222657 0.09810000000000002 0.6330444553222657 0.09720000000000002 0.6330444553222657 0.09615000000000001 L 0.6330444553222657 0.019800000000000012 C 0.6330444553222657 0.018750000000000017 0.6339444553222657 0.01785000000000002 0.6349944553222657 0.01785000000000002 L 0.6492444553222657 0.01785000000000002 M 0.7528987004394533 0.016500000000000015 C 0.7528987004394533 0.01050000000000001 0.7593487004394532 0.007050000000000015 0.7593487004394532 0.0039000000000000146 C 0.7593487004394532 0.0025500000000000106 0.7581487004394533 0.001350000000000004 0.7560487004394533 0.001350000000000004 L 0.7296487004394533 0.001350000000000004 C 0.7275487004394533 0.001350000000000004 0.7263487004394532 0.0025500000000000106 0.7263487004394532 0.0039000000000000146 C 0.7263487004394532 0.007050000000000015 0.7327987004394533 0.01050000000000001 0.7327987004394533 0.016500000000000015 L 0.7327987004394533 0.057900000000000014 L 0.7090987004394532 0.06900000000000002 L 0.7090987004394532 0.016500000000000015 C 0.7090987004394532 0.01050000000000001 0.7155487004394533 0.007050000000000015 0.7155487004394533 0.0039000000000000146 C 0.7155487004394533 0.0025500000000000106 0.7143487004394533 0.001350000000000004 0.7122487004394532 0.001350000000000004 L 0.6858487004394532 0.001350000000000004 C 0.6837487004394532 0.001350000000000004 0.6825487004394533 0.0025500000000000106 0.6825487004394533 0.0039000000000000146 C 0.6825487004394533 0.007050000000000015 0.6889987004394532 0.01050000000000001 0.6889987004394532 0.016500000000000015 L 0.6889987004394532 0.09945000000000002 C 0.6889987004394532 0.10545000000000002 0.6825487004394533 0.10890000000000002 0.6825487004394533 0.11205000000000002 C 0.6825487004394533 0.11340000000000001 0.6837487004394532 0.11460000000000002 0.6858487004394532 0.11460000000000002 L 0.7122487004394532 0.11460000000000002 C 0.7143487004394533 0.11460000000000002 0.7155487004394533 0.11340000000000001 0.7155487004394533 0.11205000000000002 C 0.7155487004394533 0.10890000000000002 0.7090987004394532 0.10545000000000002 0.7090987004394532 0.09945000000000002 L 0.7090987004394532 0.09060000000000001 L 0.7327987004394533 0.07950000000000002 L 0.7327987004394533 0.09945000000000002 C 0.7327987004394533 0.10545000000000002 0.7263487004394532 0.10890000000000002 0.7263487004394532 0.11205000000000002 C 0.7263487004394532 0.11340000000000001 0.7275487004394533 0.11460000000000002 0.7296487004394533 0.11460000000000002 L 0.7560487004394533 0.11460000000000002 C 0.7581487004394533 0.11460000000000002 0.7593487004394532 0.11340000000000001 0.7593487004394532 0.11205000000000002 C 0.7593487004394532 0.10890000000000002 0.7528987004394533 0.10545000000000002 0.7528987004394533 0.09945000000000002 M 0.8049490637207033 0.01785000000000002 C 0.8142490637207034 0.01785000000000002 0.8142490637207034 0.018750000000000017 0.8172490637207034 0.022050000000000014 C 0.8197990637207033 0.025050000000000017 0.8209990637207033 0.02625000000000001 0.8229490637207033 0.02625000000000001 C 0.8253490637207034 0.02625000000000001 0.8269990637207033 0.02460000000000001 0.8269990637207033 0.02220000000000001 L 0.8269990637207033 0.0039000000000000146 C 0.8269990637207033 0.0015000000000000152 0.8253490637207034 1.3877787807814457e-17 0.8229490637207033 1.3877787807814457e-17 C 0.8220490637207033 1.3877787807814457e-17 0.8205490637207034 0.00015000000000001124 0.8179990637207033 0.00045000000000000595 C 0.8149990637207033 0.0009000000000000119 0.8110990637207033 0.001350000000000004 0.8086990637207033 0.001350000000000004 L 0.7810990637207034 0.001350000000000004 C 0.7704490637207033 0.001350000000000004 0.7684990637207033 1.3877787807814457e-17 0.7660990637207034 1.3877787807814457e-17 C 0.7636990637207033 1.3877787807814457e-17 0.7627990637207033 0.0010500000000000093 0.7627990637207033 0.0034500000000000086 L 0.7627990637207033 0.02310000000000001 C 0.7627990637207033 0.02490000000000002 0.7638490637207034 0.02625000000000001 0.7654990637207033 0.02625000000000001 C 0.7675990637207033 0.02625000000000001 0.7689490637207034 0.024750000000000008 0.7722490637207033 0.021900000000000017 C 0.7755490637207033 0.01905000000000001 0.7764490637207033 0.01785000000000002 0.7848490637207033 0.01785000000000002 L 0.7848490637207033 0.09945000000000002 C 0.7848490637207033 0.10545000000000002 0.7783990637207033 0.10890000000000002 0.7783990637207033 0.11205000000000002 C 0.7783990637207033 0.11340000000000001 0.7795990637207033 0.11460000000000002 0.7816990637207033 0.11460000000000002 L 0.8080990637207033 0.11460000000000002 C 0.8101990637207034 0.11460000000000002 0.8113990637207034 0.11340000000000001 0.8113990637207034 0.11205000000000002 C 0.8113990637207034 0.10890000000000002 0.8049490637207033 0.10545000000000002 0.8049490637207033 0.09945000000000002 M 0.8513017707519533 0.11460000000000002 L 0.8778517707519533 0.11460000000000002 C 0.8850517707519533 0.11460000000000002 0.8921017707519533 0.10845000000000002 0.8921017707519533 0.10230000000000002 L 0.8921017707519533 0.07140000000000002 C 0.8921017707519533 0.06495000000000001 0.8894017707519533 0.06195000000000002 0.8844517707519534 0.058650000000000015 L 0.8594017707519533 0.04140000000000002 C 0.8570017707519533 0.03960000000000001 0.8565517707519533 0.03840000000000002 0.8565517707519533 0.03630000000000001 L 0.8565517707519533 0.01785000000000002 L 0.8705017707519533 0.01785000000000002 L 0.8705017707519533 0.027900000000000008 C 0.8705017707519533 0.03180000000000001 0.8717017707519533 0.03315000000000001 0.8730517707519533 0.03405000000000001 C 0.8756017707519533 0.03570000000000001 0.8837017707519533 0.04140000000000002 0.8873017707519533 0.04140000000000002 C 0.8888017707519533 0.04140000000000002 0.8906017707519533 0.03960000000000001 0.8906017707519533 0.036900000000000016 L 0.8906017707519533 0.01365000000000001 C 0.8906017707519533 0.007500000000000007 0.8847517707519533 0.001350000000000004 0.8757517707519533 0.001350000000000004 L 0.8507017707519533 0.001350000000000004 C 0.8427517707519533 0.001350000000000004 0.8364517707519533 0.005400000000000016 0.8364517707519533 0.012900000000000009 L 0.8364517707519533 0.04275000000000001 C 0.8364517707519533 0.04935000000000002 0.8402017707519533 0.05250000000000002 0.8445517707519533 0.055500000000000015 L 0.8693017707519534 0.07260000000000003 C 0.8712517707519534 0.07395000000000002 0.8720017707519533 0.07530000000000002 0.8720017707519533 0.07725000000000001 L 0.8720017707519533 0.09810000000000002 L 0.8565517707519533 0.09810000000000002 L 0.8565517707519533 0.08400000000000002 C 0.8565517707519533 0.08010000000000002 0.8553517707519533 0.07875000000000001 0.8540017707519533 0.07785000000000002 C 0.8516017707519533 0.07605000000000002 0.8433517707519533 0.07050000000000001 0.8403517707519533 0.07050000000000001 C 0.8382517707519533 0.07050000000000001 0.8364517707519533 0.07215000000000002 0.8364517707519533 0.07485000000000003 L 0.8364517707519533 0.10230000000000002 C 0.8364517707519533 0.10845000000000002 0.8424517707519533 0.11460000000000002 0.8513017707519533 0.11460000000000002" fill="#05386b" fill-rule="nonzero"></path></g><g><path d=" M 0.004062500000000001 0.19006875 L 0.004062500000000001 0.18906875 L 0.009062500000000003 0.18656875 L 0.009062500000000003 0.15231875 L 0.004062500000000001 0.14981875 L 0.004062500000000001 0.14881875 L 0.022375000000000006 0.14881875 Q 0.02925000000000001 0.14881875 0.03412500000000001 0.15125625 Q 0.03900000000000001 0.15369375 0.04153125000000001 0.15794375 Q 0.04406250000000001 0.16219375 0.04406250000000001 0.16756875 Q 0.04406250000000001 0.17244375 0.04240625000000001 0.17656875 Q 0.04075000000000001 0.18069375000000001 0.037750000000000006 0.18369375000000002 Q 0.03475000000000001 0.18669375000000002 0.030718750000000006 0.18838125 Q 0.026687500000000006 0.19006875 0.021937500000000006 0.19006875 L 0.004062500000000001 0.19006875 M 0.020937500000000005 0.15225625 L 0.014687500000000003 0.15225625 L 0.014687500000000003 0.18663125 L 0.021875000000000006 0.18663125 Q 0.026875000000000007 0.18663125 0.030531250000000006 0.18453750000000002 Q 0.03418750000000001 0.18244375000000002 0.03615625000000001 0.1786 Q 0.038125000000000006 0.17475625 0.038125000000000006 0.16950625 Q 0.038125000000000006 0.16431875 0.03612500000000001 0.1604125 Q 0.03412500000000001 0.15650625 0.030281250000000006 0.15438125 Q 0.026437500000000006 0.15225625 0.020937500000000005 0.15225625 M 0.05713277587890627 0.19006875 L 0.05713277587890627 0.18906875 L 0.06213277587890627 0.18656875 L 0.06213277587890627 0.15231875 L 0.05713277587890627 0.14981875 L 0.05713277587890627 0.14881875 L 0.07275777587890628 0.14881875 L 0.07275777587890628 0.14981875 L 0.06775777587890627 0.15231875 L 0.06775777587890627 0.18656875 L 0.07275777587890628 0.18906875 L 0.07275777587890628 0.19006875 L 0.05713277587890627 0.19006875 M 0.09795244140625002 0.19069375 Q 0.09407744140625002 0.19069375 0.09138994140625002 0.189975 Q 0.08870244140625003 0.18925625000000001 0.08582744140625002 0.18781875 L 0.08520244140625002 0.17756875 L 0.08620244140625002 0.17756875 L 0.08926494140625002 0.18419375000000002 Q 0.09151494140625002 0.18606875 0.09363994140625002 0.1869125 Q 0.09576494140625003 0.18775625 0.09795244140625002 0.18775625 Q 0.10163994140625002 0.18775625 0.10373369140625002 0.18581875 Q 0.10582744140625003 0.18388125 0.10582744140625003 0.18056875 Q 0.10582744140625003 0.17781875 0.10460869140625002 0.17625625 Q 0.10338994140625002 0.17469375 0.10110869140625002 0.173475 Q 0.09882744140625002 0.17225625 0.09570244140625002 0.17069375 Q 0.09276494140625002 0.16919375 0.09070244140625003 0.16775625 Q 0.08863994140625002 0.16631875000000002 0.08757744140625003 0.16441250000000002 Q 0.08651494140625002 0.16250625 0.08651494140625002 0.15963125 Q 0.08651494140625002 0.15750625000000001 0.08754619140625002 0.155475 Q 0.08857744140625003 0.15344375 0.09035869140625002 0.1517875 Q 0.09213994140625002 0.15013125 0.09435869140625003 0.1491625 Q 0.09657744140625002 0.14819375 0.09895244140625002 0.14819375 Q 0.10182744140625002 0.14819375 0.10426494140625003 0.14888125 Q 0.10670244140625003 0.14956875 0.10926494140625002 0.15081875 L 0.10988994140625002 0.16081875 L 0.10888994140625002 0.16081875 L 0.10601494140625002 0.15425624999999998 Q 0.10382744140625003 0.15263125 0.10220244140625002 0.1519125 Q 0.10057744140625002 0.15119375000000002 0.09845244140625002 0.15119375000000002 Q 0.09570244140625002 0.15119375000000002 0.09392119140625002 0.15306875 Q 0.09213994140625002 0.15494375 0.09213994140625002 0.15769375 Q 0.09213994140625002 0.16088125 0.09407744140625002 0.1626625 Q 0.09601494140625003 0.16444375 0.10013994140625002 0.16644375 Q 0.10395244140625003 0.16831875000000002 0.10638994140625002 0.1699125 Q 0.10882744140625003 0.17150625 0.11001494140625002 0.17356875 Q 0.11120244140625002 0.17563125000000002 0.11120244140625002 0.17881875 Q 0.11120244140625002 0.18175625 0.10995244140625003 0.183975 Q 0.10870244140625003 0.18619375000000002 0.10673369140625003 0.18769375000000002 Q 0.10476494140625003 0.18919375000000002 0.10242119140625003 0.18994375000000002 Q 0.10007744140625002 0.19069375 0.09795244140625002 0.19069375 M 0.14395905761718752 0.19069375 Q 0.13758405761718753 0.19069375 0.13295905761718754 0.18806875 Q 0.12833405761718752 0.18544375000000002 0.12583405761718752 0.1809125 Q 0.12333405761718753 0.17638125000000002 0.12333405761718753 0.17056875 Q 0.12333405761718753 0.16613125 0.12505280761718754 0.1621 Q 0.12677155761718753 0.15806875 0.12974030761718752 0.15494375 Q 0.13270905761718754 0.15181875 0.13661530761718754 0.15000625 Q 0.14052155761718754 0.14819375 0.14489655761718753 0.14819375 Q 0.14802155761718755 0.14819375 0.15020905761718753 0.1486 Q 0.15239655761718754 0.14900625 0.15411530761718753 0.1496625 Q 0.15583405761718755 0.15031875 0.15758405761718752 0.15119375000000002 L 0.15789655761718754 0.16213125 L 0.15677155761718753 0.16213125 L 0.15295905761718753 0.15450625 Q 0.15058405761718754 0.15281875 0.14880280761718753 0.15206875 Q 0.14702155761718755 0.15131875 0.14477155761718755 0.15131875 Q 0.14027155761718754 0.15131875 0.13674030761718753 0.15356875 Q 0.13320905761718754 0.15581875 0.13117780761718753 0.159725 Q 0.12914655761718752 0.16363125 0.12914655761718752 0.16869375 Q 0.12914655761718752 0.17463125000000002 0.13111530761718754 0.17885 Q 0.13308405761718753 0.18306875 0.13642780761718754 0.1852875 Q 0.13977155761718754 0.18750625 0.14383405761718754 0.18750625 Q 0.14727155761718755 0.18750625 0.14961530761718753 0.1865375 Q 0.15195905761718753 0.18556875 0.15377155761718753 0.18438125 L 0.15752155761718753 0.17769375 L 0.15858405761718752 0.17769375 L 0.15789655761718754 0.18763125 Q 0.15608405761718755 0.18856875 0.15417780761718752 0.18925625000000001 Q 0.15227155761718753 0.18994375000000002 0.14983405761718754 0.19031875 Q 0.14739655761718753 0.19069375 0.14395905761718752 0.19069375 M 0.19384113159179692 0.19069375 Q 0.1893411315917969 0.19069375 0.18555988159179693 0.18910000000000002 Q 0.1817786315917969 0.18750625 0.17896613159179692 0.1846625 Q 0.17615363159179692 0.18181875 0.17459113159179693 0.17794375 Q 0.1730286315917969 0.17406875 0.1730286315917969 0.16944375 Q 0.1730286315917969 0.16481875 0.17459113159179693 0.16094375 Q 0.17615363159179692 0.15706875 0.17896613159179692 0.154225 Q 0.1817786315917969 0.15138125 0.18555988159179693 0.1497875 Q 0.1893411315917969 0.14819375 0.19384113159179692 0.14819375 Q 0.19834113159179692 0.14819375 0.20215363159179692 0.1497875 Q 0.20596613159179694 0.15138125 0.20877863159179694 0.154225 Q 0.21159113159179693 0.15706875 0.21315363159179693 0.16094375 Q 0.21471613159179692 0.16481875 0.21471613159179692 0.16944375 Q 0.21471613159179692 0.17406875 0.21315363159179693 0.17794375 Q 0.21159113159179693 0.18181875 0.20877863159179694 0.1846625 Q 0.20596613159179694 0.18750625 0.20215363159179692 0.18910000000000002 Q 0.19834113159179692 0.19069375 0.19384113159179692 0.19069375 M 0.1951536315917969 0.18756875 Q 0.19915363159179691 0.18756875 0.20218488159179693 0.18556875 Q 0.2052161315917969 0.18356875 0.20693488159179693 0.17994375 Q 0.20865363159179692 0.17631875 0.20865363159179692 0.17138125 Q 0.20865363159179692 0.16531875000000001 0.2065286315917969 0.1607875 Q 0.20440363159179692 0.15625624999999999 0.2008098815917969 0.15375624999999998 Q 0.19721613159179693 0.15125625 0.19277863159179692 0.15125625 Q 0.18877863159179692 0.15125625 0.1856848815917969 0.153225 Q 0.1825911315917969 0.15519375 0.1808411315917969 0.15881875 Q 0.1790911315917969 0.16244375 0.1790911315917969 0.16738125 Q 0.1790911315917969 0.17344375 0.18124738159179693 0.17800625 Q 0.18340363159179693 0.18256875 0.18702863159179692 0.18506875 Q 0.19065363159179693 0.18756875 0.1951536315917969 0.18756875 M 0.2437834777832032 0.19038125 L 0.2280334777832032 0.15200625 L 0.2237209777832032 0.14981875 L 0.2237209777832032 0.14881875 L 0.2393459777832032 0.14881875 L 0.2393459777832032 0.14981875 L 0.2339709777832032 0.15213125 L 0.2339709777832032 0.15244375 L 0.2456584777832032 0.18106875 L 0.2459709777832032 0.18106875 L 0.2575959777832032 0.15219375000000002 L 0.2575959777832032 0.15194375 L 0.2524709777832032 0.14981875 L 0.2524709777832032 0.14881875 L 0.2655959777832032 0.14881875 L 0.2655959777832032 0.14981875 L 0.2620334777832032 0.15169375000000002 L 0.2459709777832032 0.19038125 L 0.2437834777832032 0.19038125 M 0.27616411743164077 0.19006875 L 0.27616411743164077 0.18906875 L 0.28116411743164077 0.18656875 L 0.28116411743164077 0.15231875 L 0.27616411743164077 0.14981875 L 0.27616411743164077 0.14881875 L 0.30672661743164076 0.14881875 L 0.30672661743164076 0.15956875 L 0.30572661743164076 0.15956875 L 0.30185161743164074 0.15225625 L 0.28678911743164076 0.15225625 L 0.28678911743164076 0.16706875 L 0.29741411743164076 0.16706875 L 0.30053911743164075 0.16188125 L 0.30153911743164075 0.16188125 L 0.30153911743164075 0.17556875 L 0.30053911743164075 0.17556875 L 0.29741411743164076 0.17050625 L 0.28678911743164076 0.17050625 L 0.28678911743164076 0.18663125 L 0.30360161743164077 0.18663125 L 0.30747661743164073 0.17869375 L 0.30847661743164073 0.17869375 L 0.30847661743164073 0.19006875 L 0.27616411743164077 0.19006875 M 0.32123146362304705 0.19006875 L 0.32123146362304705 0.18906875 L 0.32623146362304706 0.18656875 L 0.32623146362304706 0.15231875 L 0.32123146362304705 0.14981875 L 0.32123146362304705 0.14881875 L 0.33735646362304705 0.14881875 Q 0.343918963623047 0.14881875 0.34770021362304704 0.1515375 Q 0.35148146362304705 0.15425624999999998 0.35148146362304705 0.15900625000000002 Q 0.35148146362304705 0.16250625 0.34910646362304704 0.1652875 Q 0.346731463623047 0.16806875 0.34279396362304704 0.16950625 L 0.354668963623047 0.18681875 L 0.35879396362304705 0.18906875 L 0.35879396362304705 0.19006875 L 0.34979396362304704 0.19006875 L 0.33766896362304705 0.17113125 L 0.33185646362304705 0.17113125 L 0.33185646362304705 0.18650625 L 0.33654396362304706 0.18906875 L 0.33654396362304706 0.19006875 L 0.32123146362304705 0.19006875 M 0.335918963623047 0.15225625 L 0.33185646362304705 0.15225625 L 0.33185646362304705 0.16769375 L 0.33629396362304703 0.16769375 Q 0.340231463623047 0.16769375 0.342825213623047 0.165475 Q 0.345418963623047 0.16325625 0.345418963623047 0.15981875 Q 0.345418963623047 0.15631875 0.34285646362304706 0.1542875 Q 0.34029396362304704 0.15225625 0.335918963623047 0.15225625 M 0.3706133850097658 0.19038125 Q 0.3690508850097658 0.19038125 0.3679258850097658 0.18925625000000001 Q 0.3668008850097658 0.18813125 0.3668008850097658 0.18656875 Q 0.3668008850097658 0.18500625 0.3679258850097658 0.18388125 Q 0.3690508850097658 0.18275625 0.3706133850097658 0.18275625 Q 0.37217588500976584 0.18275625 0.3733008850097658 0.18388125 Q 0.3744258850097658 0.18500625 0.3744258850097658 0.18656875 Q 0.3744258850097658 0.18813125 0.3733008850097658 0.18925625000000001 Q 0.37217588500976584 0.19038125 0.3706133850097658 0.19038125 M 0.4067508850097658 0.19006875 L 0.4067508850097658 0.18906875 L 0.4117508850097658 0.18656875 L 0.4117508850097658 0.15231875 L 0.4067508850097658 0.14981875 L 0.4067508850097658 0.14881875 L 0.42256338500976576 0.14881875 Q 0.4266883850097658 0.14881875 0.4299696350097658 0.14984999999999998 Q 0.4332508850097658 0.15088125 0.4351258850097658 0.1529125 Q 0.4370008850097658 0.15494375 0.4370008850097658 0.15806875 Q 0.4370008850097658 0.16125625 0.4348758850097658 0.16391250000000002 Q 0.4327508850097658 0.16656875 0.42875088500976577 0.16769375 Q 0.4343133850097658 0.16844375 0.4374383850097658 0.1711625 Q 0.4405633850097658 0.17388125000000001 0.4405633850097658 0.17806875 Q 0.4405633850097658 0.18150625 0.4384071350097658 0.184225 Q 0.4362508850097658 0.18694375000000002 0.4325008850097658 0.18850625000000001 Q 0.42875088500976577 0.19006875 0.4240008850097658 0.19006875 L 0.4067508850097658 0.19006875 M 0.4211258850097658 0.15225625 L 0.4173758850097658 0.15225625 L 0.4173758850097658 0.16706875 L 0.4215008850097658 0.16706875 Q 0.4259383850097658 0.16706875 0.4284383850097658 0.1651625 Q 0.4309383850097658 0.16325625 0.4309383850097658 0.15981875 Q 0.4309383850097658 0.15225625 0.4211258850097658 0.15225625 M 0.4235008850097658 0.17050625 L 0.4173758850097658 0.17050625 L 0.4173758850097658 0.18663125 L 0.4239383850097658 0.18663125 Q 0.4288758850097658 0.18663125 0.4316883850097658 0.18438125 Q 0.4345008850097658 0.18213125 0.4345008850097658 0.17856875 Q 0.4345008850097658 0.17431875 0.43165713500976577 0.1724125 Q 0.4288133850097658 0.17050625 0.4235008850097658 0.17050625 M 0.45219588623046897 0.19006875 L 0.45219588623046897 0.18906875 L 0.457195886230469 0.18656875 L 0.457195886230469 0.15231875 L 0.45219588623046897 0.14981875 L 0.45219588623046897 0.14881875 L 0.46844588623046896 0.14881875 L 0.46844588623046896 0.14981875 L 0.46282088623046896 0.15231875 L 0.46282088623046896 0.18663125 L 0.47800838623046893 0.18663125 L 0.48225838623046896 0.17619375 L 0.48325838623046896 0.17619375 L 0.48325838623046896 0.19006875 L 0.45219588623046897 0.19006875 M 0.5171408264160159 0.19069375 Q 0.5126408264160158 0.19069375 0.5088595764160159 0.18910000000000002 Q 0.5050783264160159 0.18750625 0.5022658264160158 0.1846625 Q 0.49945332641601586 0.18181875 0.49789082641601584 0.17794375 Q 0.4963283264160159 0.17406875 0.4963283264160159 0.16944375 Q 0.4963283264160159 0.16481875 0.49789082641601584 0.16094375 Q 0.49945332641601586 0.15706875 0.5022658264160158 0.154225 Q 0.5050783264160159 0.15138125 0.5088595764160159 0.1497875 Q 0.5126408264160158 0.14819375 0.5171408264160159 0.14819375 Q 0.5216408264160158 0.14819375 0.5254533264160158 0.1497875 Q 0.5292658264160158 0.15138125 0.5320783264160158 0.154225 Q 0.5348908264160158 0.15706875 0.5364533264160158 0.16094375 Q 0.5380158264160159 0.16481875 0.5380158264160159 0.16944375 Q 0.5380158264160159 0.17406875 0.5364533264160158 0.17794375 Q 0.5348908264160158 0.18181875 0.5320783264160158 0.1846625 Q 0.5292658264160158 0.18750625 0.5254533264160158 0.18910000000000002 Q 0.5216408264160158 0.19069375 0.5171408264160159 0.19069375 M 0.5184533264160158 0.18756875 Q 0.5224533264160158 0.18756875 0.5254845764160159 0.18556875 Q 0.5285158264160159 0.18356875 0.5302345764160159 0.17994375 Q 0.5319533264160159 0.17631875 0.5319533264160159 0.17138125 Q 0.5319533264160159 0.16531875000000001 0.5298283264160158 0.1607875 Q 0.5277033264160159 0.15625624999999999 0.5241095764160159 0.15375624999999998 Q 0.5205158264160159 0.15125625 0.5160783264160158 0.15125625 Q 0.5120783264160158 0.15125625 0.5089845764160159 0.153225 Q 0.5058908264160159 0.15519375 0.5041408264160159 0.15881875 Q 0.5023908264160158 0.16244375 0.5023908264160158 0.16738125 Q 0.5023908264160158 0.17344375 0.5045470764160158 0.17800625 Q 0.5067033264160159 0.18256875 0.5103283264160159 0.18506875 Q 0.5139533264160159 0.18756875 0.5184533264160158 0.18756875 M 0.5725231140136722 0.19069375 Q 0.5665231140136722 0.19069375 0.5618043640136722 0.18806875 Q 0.5570856140136722 0.18544375000000002 0.5543981140136721 0.1809125 Q 0.5517106140136722 0.17638125000000002 0.5517106140136722 0.17056875 Q 0.5517106140136722 0.16575625 0.5534293640136722 0.16169375 Q 0.5551481140136721 0.15763125 0.5582418640136722 0.15460000000000002 Q 0.5613356140136722 0.15156875 0.5653356140136722 0.14988125 Q 0.5693356140136722 0.14819375 0.5739606140136722 0.14819375 Q 0.5772106140136721 0.14819375 0.5795231140136722 0.14856875 Q 0.5818356140136721 0.14894374999999999 0.5836481140136721 0.14963125 Q 0.5854606140136721 0.15031875 0.5872731140136721 0.15119375000000002 L 0.5875856140136722 0.16150625 L 0.5865856140136722 0.16150625 L 0.5825231140136722 0.15450625 Q 0.5798981140136722 0.15269375000000002 0.5780543640136722 0.15200625 Q 0.5762106140136721 0.15131875 0.5738356140136721 0.15131875 Q 0.5690231140136721 0.15131875 0.5652731140136722 0.1534125 Q 0.5615231140136722 0.15550625 0.5593981140136721 0.1591625 Q 0.5572731140136722 0.16281875 0.5572731140136722 0.16744375 Q 0.5572731140136722 0.17369375 0.5595543640136722 0.17806875 Q 0.5618356140136721 0.18244375000000002 0.5657106140136722 0.18475625 Q 0.5695856140136721 0.18706875 0.5743356140136722 0.18706875 Q 0.5763981140136721 0.18706875 0.5783043640136721 0.18681875 Q 0.5802106140136721 0.18656875 0.5822731140136721 0.18575625 L 0.5822731140136721 0.17544375 L 0.5767106140136722 0.17294375 L 0.5767106140136722 0.17194375 L 0.5922106140136721 0.17194375 L 0.5922106140136721 0.17294375 L 0.5878981140136722 0.17563125000000002 L 0.5878981140136722 0.18544375000000002 Q 0.5850231140136721 0.18781875 0.5808043640136722 0.18925625000000001 Q 0.5765856140136721 0.19069375 0.5725231140136722 0.19069375 M 0.6074671997070316 0.19038125 Q 0.6059046997070315 0.19038125 0.6047796997070316 0.18925625000000001 Q 0.6036546997070316 0.18813125 0.6036546997070316 0.18656875 Q 0.6036546997070316 0.18500625 0.6047796997070316 0.18388125 Q 0.6059046997070315 0.18275625 0.6074671997070316 0.18275625 Q 0.6090296997070316 0.18275625 0.6101546997070315 0.18388125 Q 0.6112796997070316 0.18500625 0.6112796997070316 0.18656875 Q 0.6112796997070316 0.18813125 0.6101546997070315 0.18925625000000001 Q 0.6090296997070316 0.19038125 0.6074671997070316 0.19038125 M 0.6439171997070317 0.19006875 L 0.6439171997070317 0.18906875 L 0.6489171997070317 0.18656875 L 0.6489171997070317 0.15231875 L 0.6439171997070317 0.14981875 L 0.6439171997070317 0.14881875 L 0.6595421997070317 0.14881875 L 0.6595421997070317 0.14981875 L 0.6545421997070316 0.15231875 L 0.6545421997070316 0.18656875 L 0.6595421997070317 0.18906875 L 0.6595421997070317 0.19006875 L 0.6439171997070317 0.19006875 M 0.6719868652343755 0.19006875 L 0.6719868652343755 0.18906875 L 0.6769868652343755 0.18656875 L 0.6769868652343755 0.15244375 L 0.6720493652343754 0.14981875 L 0.6720493652343754 0.14881875 L 0.6812368652343754 0.14881875 L 0.7051118652343754 0.17881875 L 0.7051118652343754 0.15219375000000002 L 0.6988618652343754 0.14981875 L 0.6988618652343754 0.14881875 L 0.7144243652343755 0.14881875 L 0.7144243652343755 0.14981875 L 0.7094868652343754 0.15225625 L 0.7094868652343754 0.19038125 L 0.7071743652343754 0.19038125 L 0.6813618652343755 0.15781875 L 0.6813618652343755 0.18663125 L 0.6876118652343755 0.18906875 L 0.6876118652343755 0.19006875 L 0.6719868652343755 0.19006875 M 0.7389938171386723 0.19069375 Q 0.7351188171386723 0.19069375 0.7324313171386724 0.189975 Q 0.7297438171386723 0.18925625000000001 0.7268688171386724 0.18781875 L 0.7262438171386724 0.17756875 L 0.7272438171386724 0.17756875 L 0.7303063171386723 0.18419375000000002 Q 0.7325563171386723 0.18606875 0.7346813171386724 0.1869125 Q 0.7368063171386723 0.18775625 0.7389938171386723 0.18775625 Q 0.7426813171386724 0.18775625 0.7447750671386724 0.18581875 Q 0.7468688171386724 0.18388125 0.7468688171386724 0.18056875 Q 0.7468688171386724 0.17781875 0.7456500671386723 0.17625625 Q 0.7444313171386724 0.17469375 0.7421500671386724 0.173475 Q 0.7398688171386724 0.17225625 0.7367438171386723 0.17069375 Q 0.7338063171386724 0.16919375 0.7317438171386723 0.16775625 Q 0.7296813171386723 0.16631875000000002 0.7286188171386724 0.16441250000000002 Q 0.7275563171386723 0.16250625 0.7275563171386723 0.15963125 Q 0.7275563171386723 0.15750625000000001 0.7285875671386723 0.155475 Q 0.7296188171386724 0.15344375 0.7314000671386723 0.1517875 Q 0.7331813171386723 0.15013125 0.7354000671386723 0.1491625 Q 0.7376188171386724 0.14819375 0.7399938171386723 0.14819375 Q 0.7428688171386724 0.14819375 0.7453063171386723 0.14888125 Q 0.7477438171386723 0.14956875 0.7503063171386724 0.15081875 L 0.7509313171386723 0.16081875 L 0.7499313171386723 0.16081875 L 0.7470563171386724 0.15425624999999998 Q 0.7448688171386724 0.15263125 0.7432438171386724 0.1519125 Q 0.7416188171386724 0.15119375000000002 0.7394938171386723 0.15119375000000002 Q 0.7367438171386723 0.15119375000000002 0.7349625671386724 0.15306875 Q 0.7331813171386723 0.15494375 0.7331813171386723 0.15769375 Q 0.7331813171386723 0.16088125 0.7351188171386723 0.1626625 Q 0.7370563171386724 0.16444375 0.7411813171386723 0.16644375 Q 0.7449938171386723 0.16831875000000002 0.7474313171386724 0.1699125 Q 0.7498688171386724 0.17150625 0.7510563171386724 0.17356875 Q 0.7522438171386724 0.17563125000000002 0.7522438171386724 0.17881875 Q 0.7522438171386724 0.18175625 0.7509938171386723 0.183975 Q 0.7497438171386723 0.18619375000000002 0.7477750671386724 0.18769375000000002 Q 0.7458063171386723 0.18919375000000002 0.7434625671386723 0.18994375000000002 Q 0.7411188171386723 0.19069375 0.7389938171386723 0.19069375 M 0.7640629333496098 0.19006875 L 0.7640629333496098 0.18906875 L 0.7690629333496098 0.18656875 L 0.7690629333496098 0.15231875 L 0.7640629333496098 0.14981875 L 0.7640629333496098 0.14881875 L 0.7803129333496098 0.14881875 Q 0.7876879333496098 0.14881875 0.7921566833496099 0.15150625 Q 0.7966254333496099 0.15419375 0.7966254333496099 0.16000625000000002 Q 0.7966254333496099 0.16344375 0.7942816833496099 0.1661 Q 0.7919379333496099 0.16875625 0.7879066833496099 0.17031875000000002 Q 0.7838754333496099 0.17188125 0.7788129333496099 0.17188125 L 0.7746879333496098 0.17188125 L 0.7746879333496098 0.18656875 L 0.7803129333496098 0.18906875 L 0.7803129333496098 0.19006875 L 0.7640629333496098 0.19006875 M 0.7746879333496098 0.15225625 L 0.7746879333496098 0.16844375 L 0.7800004333496099 0.16844375 Q 0.7849379333496099 0.16844375 0.7877504333496099 0.166225 Q 0.7905629333496099 0.16400625 0.7905629333496099 0.16050625000000002 Q 0.7905629333496099 0.15613125 0.7877191833496099 0.15419375 Q 0.7848754333496099 0.15225625 0.7795629333496099 0.15225625 L 0.7746879333496098 0.15225625 M 0.808569213867188 0.19006875 L 0.808569213867188 0.18906875 L 0.8135692138671881 0.18656875 L 0.8135692138671881 0.15231875 L 0.808569213867188 0.14981875 L 0.808569213867188 0.14881875 L 0.824194213867188 0.14881875 L 0.824194213867188 0.14981875 L 0.819194213867188 0.15231875 L 0.819194213867188 0.18656875 L 0.824194213867188 0.18906875 L 0.824194213867188 0.19006875 L 0.808569213867188 0.19006875 M 0.8369513793945318 0.19006875 L 0.8369513793945318 0.18906875 L 0.8419513793945318 0.18656875 L 0.8419513793945318 0.15231875 L 0.8369513793945318 0.14981875 L 0.8369513793945318 0.14881875 L 0.8530763793945318 0.14881875 Q 0.8596388793945319 0.14881875 0.8634201293945318 0.1515375 Q 0.8672013793945318 0.15425624999999998 0.8672013793945318 0.15900625000000002 Q 0.8672013793945318 0.16250625 0.8648263793945319 0.1652875 Q 0.8624513793945319 0.16806875 0.8585138793945318 0.16950625 L 0.8703888793945318 0.18681875 L 0.8745138793945318 0.18906875 L 0.8745138793945318 0.19006875 L 0.8655138793945318 0.19006875 L 0.8533888793945318 0.17113125 L 0.8475763793945318 0.17113125 L 0.8475763793945318 0.18650625 L 0.8522638793945319 0.18906875 L 0.8522638793945319 0.19006875 L 0.8369513793945318 0.19006875 M 0.8516388793945319 0.15225625 L 0.8475763793945318 0.15225625 L 0.8475763793945318 0.16769375 L 0.8520138793945318 0.16769375 Q 0.8559513793945318 0.16769375 0.8585451293945319 0.165475 Q 0.8611388793945318 0.16325625 0.8611388793945318 0.15981875 Q 0.8611388793945318 0.15631875 0.8585763793945318 0.1542875 Q 0.8560138793945318 0.15225625 0.8516388793945319 0.15225625 M 0.8825833007812506 0.19006875 L 0.8825833007812506 0.18906875 L 0.8875833007812506 0.18656875 L 0.8875833007812506 0.15231875 L 0.8825833007812506 0.14981875 L 0.8825833007812506 0.14881875 L 0.9131458007812506 0.14881875 L 0.9131458007812506 0.15956875 L 0.9121458007812506 0.15956875 L 0.9082708007812507 0.15225625 L 0.8932083007812506 0.15225625 L 0.8932083007812506 0.16706875 L 0.9038333007812506 0.16706875 L 0.9069583007812506 0.16188125 L 0.9079583007812506 0.16188125 L 0.9079583007812506 0.17556875 L 0.9069583007812506 0.17556875 L 0.9038333007812506 0.17050625 L 0.8932083007812506 0.17050625 L 0.8932083007812506 0.18663125 L 0.9100208007812506 0.18663125 L 0.9138958007812507 0.17869375 L 0.9148958007812507 0.17869375 L 0.9148958007812507 0.19006875 L 0.8825833007812506 0.19006875 M 0.9314006469726569 0.19038125 Q 0.9298381469726569 0.19038125 0.9287131469726569 0.18925625000000001 Q 0.9275881469726569 0.18813125 0.9275881469726569 0.18656875 Q 0.9275881469726569 0.18500625 0.9287131469726569 0.18388125 Q 0.9298381469726569 0.18275625 0.9314006469726569 0.18275625 Q 0.9329631469726569 0.18275625 0.9340881469726569 0.18388125 Q 0.9352131469726569 0.18500625 0.9352131469726569 0.18656875 Q 0.9352131469726569 0.18813125 0.9340881469726569 0.18925625000000001 Q 0.9329631469726569 0.19038125 0.9314006469726569 0.19038125" fill="#05386b" fill-rule="nonzero"></path></g><g clip-path="url(#SvgjsClipPath1042)"><g clip-path="url(#SvgjsClipPath10400dd2143f-b84b-4956-9e61-839f79edfefb)"><path d=" M 2.6212707762350695 -6.112526876258446 L -2.9294022692514754 -6.112526876258446 L -2.9294022692514754 -0.5618538307719021 L 2.6212707762350695 -0.5618538307719021 Z M -3.2412561000233766 -6.424380707030348 L -3.2412561000233766 -0.25 L 2.9331246070069708 -0.25 L 2.9331246070069708 -6.424380707030348 Z" fill="#05386b" transform="matrix(1,0,0,1,0,0)" fill-rule="evenodd"></path></g><g clip-path="url(#SvgjsClipPath10400dd2143f-b84b-4956-9e61-839f79edfefb)"><path d=" M 3.3696634236087983 -6.860919523632175 L -2.430450276636142 -6.860919523632175 L -2.430450276636142 -1.060805823387235 L 3.3696634236087983 -1.060805823387235 Z M -2.617548438479574 -7.048017685475608 L -2.617548438479574 -0.8737076615438024 L 3.556761585452231 -0.8737076615438024 L 3.556761585452231 -7.048017685475608 Z" fill="#05386b" transform="matrix(1,0,0,1,0,0)" fill-rule="evenodd"></path></g><g clip-path="url(#SvgjsClipPath10400dd2143f-b84b-4956-9e61-839f79edfefb)"><path d=" M 4.055713578067564 -7.5469696780909405 L -1.8691557911058454 -7.5469696780909405 L -1.8691557911058454 -1.622100308917532 L 4.055713578067563 -1.622100308917532 Z M -1.9939114600343146 -7.67172534701941 L -1.9939114600343146 -1.4973446399890626 L 4.180469246996033 -1.4973446399890626 L 4.180469246996033 -7.67172534701941 Z" fill="#05386b" transform="matrix(1,0,0,1,0,0)" fill-rule="evenodd"></path></g><g clip-path="url(#SvgjsClipPath10400dd2143f-b84b-4956-9e61-839f79edfefb)"><path d=" M -1.370203798490512 -3.430739434436891 L -0.12285915850144935 -3.430739434436891 L -0.12285915850144935 -2.1833947944478282 L -1.370203798490512 -2.1833947944478282 Z" fill="#05386b" transform="matrix(1,0,0,1,0,0)" fill-rule="nonzero"></path></g></g></g><defs><clipPath id="SvgjsClipPath1042"><path d=" M -3.2412561000233766 -7.67172534701941 h 7.42172534701941 v 7.42172534701941 h -7.42172534701941 Z"></path></clipPath><clipPath id="SvgjsClipPath10400dd2143f-b84b-4956-9e61-839f79edfefb"><path d=" M -3.2412561000233766 -7.67172534701941 L 4.180469246996033 -7.67172534701941 L 4.180469246996033 -0.25 L -3.2412561000233766 -0.25 Z"></path></clipPath></defs></svg>